<svg width="24" height="67" viewBox="0 0 24 67" fill="none" xmlns="http://www.w3.org/2000/svg">
<path d="M11.9969 33.0133L11.4969 33.0157L11.9969 33.0133ZM11.018 49.897L11.5146 49.9559L11.018 49.897ZM8 67L6.20598 61.5123L11.8555 62.7025L8 67ZM11.018 16.5681L10.5218 16.6294L11.018 16.5681ZM8 1C8.48505 0.878658 8.48506 0.878667 8.48506 0.87868C8.48506 0.878687 8.48506 0.878702 8.48507 0.878718C8.48508 0.878748 8.48509 0.87879 8.4851 0.878843C8.48513 0.878949 8.48516 0.8791 8.48521 0.879294C8.48531 0.879683 8.48545 0.880248 8.48563 0.880988C8.486 0.882469 8.48655 0.884651 8.48727 0.887528C8.4887 0.89328 8.49082 0.901809 8.49361 0.913051C8.4992 0.935537 8.50745 0.968879 8.51822 1.01259C8.53975 1.1 8.57132 1.22887 8.61161 1.39527C8.69218 1.72805 8.80763 2.21096 8.9474 2.81245L7.97335 3.03879C7.83435 2.44059 7.71961 1.96069 7.63969 1.63058C7.59973 1.46554 7.56847 1.33795 7.54724 1.25176C7.53663 1.20866 7.52852 1.17592 7.52308 1.15402C7.52036 1.14307 7.51831 1.13483 7.51695 1.12936C7.51627 1.12663 7.51576 1.12459 7.51542 1.12325C7.51526 1.12258 7.51513 1.12209 7.51505 1.12177C7.51501 1.12161 7.51499 1.12149 7.51497 1.12142C7.51496 1.12139 7.51495 1.12136 7.51495 1.12135C7.51495 1.12134 7.51495 1.12134 7.51495 1.12134C7.51495 1.12134 7.51495 1.12134 8 1ZM9.80759 6.69803C10.0621 7.90731 10.3282 9.23282 10.5814 10.6007L9.59807 10.7826C9.34668 9.42424 9.08214 8.10685 8.82902 6.90395L9.80759 6.69803ZM11.2432 14.5295C11.3429 15.1973 11.4342 15.8592 11.5143 16.5068L10.5218 16.6294C10.4429 15.9913 10.3528 15.3378 10.2541 14.6772L11.2432 14.5295ZM11.5143 16.5068C11.6029 17.2238 11.6838 17.9047 11.7577 18.5595L10.7641 18.6717C10.6906 18.0209 10.6101 17.3436 10.5218 16.6294L11.5143 16.5068ZM12.1552 22.6786C12.2602 24.0362 12.335 25.3732 12.3876 26.8136L11.3883 26.8501C11.3361 25.4222 11.262 24.0988 11.1582 22.7557L12.1552 22.6786ZM12.4805 30.9449C12.488 31.6004 12.4933 32.2867 12.4969 33.0108L11.4969 33.0157C11.4933 32.2934 11.488 31.6093 11.4805 30.9564L12.4805 30.9449ZM12.4969 33.0108C12.5005 33.7572 12.501 34.4621 12.4982 35.1332L11.4982 35.1289C11.501 34.4613 11.5005 33.7595 11.4969 33.0157L12.4969 33.0108ZM12.42 39.3778C12.3669 40.8598 12.2861 42.2268 12.1734 43.6241L11.1766 43.5436C11.2882 42.161 11.3681 40.809 11.4206 39.342L12.42 39.3778ZM11.7581 47.8494C11.6833 48.518 11.6023 49.2166 11.5146 49.9559L10.5215 49.8381C10.609 49.1003 10.6898 48.404 10.7643 47.7383L11.7581 47.8494ZM11.5146 49.9559C11.4315 50.6563 11.3362 51.3815 11.2318 52.1198L10.2416 51.9799C10.3451 51.2477 10.4394 50.53 10.5215 49.8381L11.5146 49.9559ZM10.5555 56.4247C10.3015 57.9148 10.0353 59.373 9.78164 60.7092L8.79918 60.5227C9.05189 59.1913 9.31695 57.7394 9.56968 56.2566L10.5555 56.4247ZM11.9969 33.0133L10.9969 33.0182L11.9969 33.0133ZM11.018 49.897L12.0111 50.0148L11.018 49.897ZM8 67L4.41196 56.0246L15.7109 58.405L8 67ZM11.018 16.5681L10.0256 16.6908L11.018 16.5681ZM8 1C8.97011 0.757316 8.97011 0.757332 8.97011 0.757351C8.97012 0.757361 8.97012 0.757382 8.97013 0.757402C8.97014 0.757441 8.97015 0.757492 8.97016 0.757554C8.9702 0.757678 8.97024 0.757845 8.97029 0.758057C8.9704 0.758481 8.97055 0.759081 8.97074 0.759857C8.97113 0.761408 8.97169 0.763662 8.97242 0.76661C8.97389 0.772505 8.97605 0.781178 8.97888 0.792567C8.98454 0.815345 8.99287 0.848987 9.00371 0.893C9.02539 0.981024 9.05712 1.11054 9.09757 1.27761C9.17846 1.61173 9.29427 2.09614 9.43443 2.69927L7.48633 3.15196C7.34771 2.55541 7.23333 2.07701 7.15373 1.74824C7.11393 1.58387 7.08283 1.45692 7.06175 1.37134C7.05121 1.32856 7.04318 1.29611 7.03781 1.2745C7.03513 1.2637 7.03312 1.25561 7.03179 1.25028C7.03113 1.24762 7.03064 1.24565 7.03032 1.24438C7.03016 1.24375 7.03005 1.24329 7.02997 1.243C7.02994 1.24286 7.02991 1.24277 7.0299 1.24271C7.02989 1.24268 7.02989 1.24267 7.02989 1.24266C7.02989 1.24266 7.02989 1.24267 7.02989 1.24267C7.02989 1.24267 7.02989 1.24268 8 1ZM10.2969 6.59508C10.552 7.80754 10.819 9.13711 11.073 10.5097L9.10642 10.8736C8.85591 9.51995 8.59219 8.20662 8.33974 7.00691L10.2969 6.59508ZM11.7377 14.4557C11.838 15.127 11.9299 15.7931 12.0105 16.4454L10.0256 16.6908C9.94729 16.0573 9.85776 15.4081 9.75963 14.7511L11.7377 14.4557ZM12.0105 16.4454C12.0993 17.1639 12.1805 17.8466 12.2546 18.5034L10.2672 18.7277C10.194 18.0791 10.1137 17.4035 10.0256 16.6908L12.0105 16.4454ZM12.6537 22.6401C12.7593 24.0049 12.8344 25.3487 12.8873 26.7954L10.8886 26.8684C10.8367 25.4467 10.763 24.1301 10.6597 22.7943L12.6537 22.6401ZM12.9804 30.9392C12.988 31.5959 12.9933 32.2834 12.9968 33.0084L10.9969 33.0182C10.9933 32.2968 10.988 31.6137 10.9806 30.9621L12.9804 30.9392ZM12.9968 33.0084C13.0005 33.756 13.001 34.4625 12.9981 35.1353L10.9982 35.1268C11.001 34.4609 11.0005 33.7606 10.9969 33.0182L12.9968 33.0084ZM12.9197 39.3957C12.8664 40.8852 12.7851 42.2596 12.6717 43.6643L10.6782 43.5034C10.7892 42.1282 10.8687 40.7836 10.9209 39.3241L12.9197 39.3957ZM12.255 47.9049C12.1801 48.575 12.0989 49.2747 12.0111 50.0148L10.025 49.7792C10.1124 49.0422 10.1931 48.3471 10.2674 47.6827L12.255 47.9049ZM12.0111 50.0148C11.9275 50.7195 11.8317 51.4484 11.7269 52.1898L9.74656 51.9099C9.84961 51.1808 9.94343 50.4669 10.025 49.7792L12.0111 50.0148ZM11.0484 56.5087C10.7937 58.0025 10.5269 59.4638 10.2729 60.8024L8.30795 60.4294C8.5602 59.1005 8.82469 57.6517 9.07679 56.1726L11.0484 56.5087Z" fill="#D9D9D9"/>
<g clip-path="url(#clip0_309_692)">
<circle cx="12" cy="33" r="12" fill="#A8DA90"/>
<path d="M16.0405 36.782V38H8.99847V37.048L12.9885 33.198C13.4738 32.7313 13.8005 32.33 13.9685 31.994C14.1365 31.6487 14.2205 31.3033 14.2205 30.958C14.2205 30.4447 14.0385 30.048 13.6745 29.768C13.3198 29.4787 12.8065 29.334 12.1345 29.334C11.0518 29.334 10.2165 29.6887 9.62847 30.398L8.67647 29.572C9.05914 29.1053 9.55847 28.7413 10.1745 28.48C10.7998 28.2187 11.4951 28.088 12.2605 28.088C13.2871 28.088 14.1038 28.3353 14.7105 28.83C15.3171 29.3153 15.6205 29.978 15.6205 30.818C15.6205 31.3407 15.5085 31.8353 15.2845 32.302C15.0605 32.7687 14.6358 33.3007 14.0105 33.898L11.0145 36.782H16.0405Z" fill="black"/>
</g>
<defs>
<clipPath id="clip0_309_692">
<rect width="24" height="24" fill="white" transform="translate(0 21)"/>
</clipPath>
</defs>
</svg>
