<svg width="381" height="59" viewBox="0 0 381 59" fill="none" xmlns="http://www.w3.org/2000/svg">
<g clip-path="url(#clip0_309_691)">
<circle cx="190" cy="47" r="12" fill="#A8DA90"/>
<path d="M190.918 46.316C191.879 46.4093 192.612 46.708 193.116 47.212C193.62 47.7067 193.872 48.3413 193.872 49.116C193.872 49.676 193.732 50.1847 193.452 50.642C193.172 51.09 192.752 51.4493 192.192 51.72C191.641 51.9813 190.965 52.112 190.162 52.112C189.462 52.112 188.79 52.0093 188.146 51.804C187.502 51.5893 186.975 51.2953 186.564 50.922L187.208 49.816C187.544 50.1333 187.973 50.39 188.496 50.586C189.019 50.7727 189.574 50.866 190.162 50.866C190.89 50.866 191.455 50.712 191.856 50.404C192.267 50.096 192.472 49.6713 192.472 49.13C192.472 48.5887 192.271 48.1687 191.87 47.87C191.469 47.5713 190.862 47.422 190.05 47.422H189.266V46.442L191.73 43.418H187.012V42.2H193.48V43.152L190.918 46.316Z" fill="black"/>
</g>
<path d="M196.291 46.9645L196.287 46.4645L196.291 46.9645ZM98.1457 35.9732L98.0328 36.4602L98.1457 35.9732ZM0 2L5.72995 1.29224L3.47791 6.60841L0 2ZM289.404 35.9732L289.521 36.4592L289.404 35.9732ZM380 2C380.216 2.45077 380.216 2.45078 380.216 2.45078C380.216 2.45078 380.216 2.45079 380.216 2.4508C380.216 2.45081 380.216 2.45083 380.216 2.45086C380.216 2.45091 380.216 2.45098 380.216 2.45107C380.215 2.45126 380.215 2.45154 380.214 2.45191C380.212 2.45265 380.21 2.45374 380.207 2.45519C380.201 2.45808 380.192 2.4624 380.18 2.46811C380.156 2.47954 380.121 2.49657 380.073 2.51905C379.979 2.56403 379.839 2.63084 379.654 2.71836C379.285 2.89339 378.738 3.15125 378.029 3.48288L377.606 2.57698C378.313 2.24613 378.858 1.98903 379.226 1.81471C379.41 1.72756 379.549 1.6611 379.643 1.61648C379.69 1.59417 379.725 1.57731 379.749 1.56606C379.76 1.56043 379.769 1.5562 379.775 1.55339C379.778 1.55198 379.78 1.55093 379.782 1.55024C379.782 1.54989 379.783 1.54963 379.783 1.54946C379.783 1.54938 379.783 1.54932 379.784 1.54928C379.784 1.54926 379.784 1.54924 379.784 1.54924C379.784 1.54923 379.784 1.54923 379.784 1.54923C379.784 1.54923 379.784 1.54923 380 2ZM373.621 5.51775C372.317 6.11294 370.84 6.78124 369.211 7.51038L368.803 6.59762C370.43 5.86953 371.904 5.20225 373.206 4.60802L373.621 5.51775ZM364.769 9.48008C363.366 10.0962 361.887 10.7406 360.34 11.4082L359.944 10.49C361.489 9.82331 362.966 9.17979 364.367 8.56454L364.769 9.48008ZM355.87 13.3186C354.427 13.93 352.937 14.5552 351.407 15.1908L351.024 14.2674C352.551 13.6326 354.039 13.0083 355.48 12.3978L355.87 13.3186ZM346.915 17.0391C345.444 17.638 343.944 18.243 342.418 18.8517L342.047 17.9228C343.571 17.3151 345.069 16.711 346.538 16.1129L346.915 17.0391ZM337.91 20.6295C336.419 21.2106 334.909 21.7927 333.383 22.3736L333.027 21.439C334.551 20.8591 336.058 20.278 337.546 19.6978L337.91 20.6295ZM328.84 24.0803C327.332 24.6393 325.812 25.1951 324.282 25.7458L323.944 24.8049C325.47 24.2554 326.987 23.7006 328.492 23.1426L328.84 24.0803ZM319.712 27.3662C318.186 27.8982 316.656 28.4232 315.122 28.9392L314.803 27.9914C316.333 27.4766 317.86 26.9528 319.382 26.422L319.712 27.3662ZM310.514 30.4596C308.97 30.9584 307.427 31.4463 305.887 31.9212L305.592 30.9656C307.127 30.4921 308.667 30.0055 310.206 29.508L310.514 30.4596ZM301.241 33.3168C299.676 33.7741 298.117 34.2158 296.569 34.6397L296.305 33.6752C297.847 33.2528 299.4 32.8127 300.961 32.3569L301.241 33.3168ZM291.87 35.8784C291.083 36.0774 290.3 36.2711 289.521 36.4592L289.287 35.4871C290.062 35.2999 290.841 35.1071 291.624 34.909L291.87 35.8784ZM289.521 36.4592C288.662 36.6668 287.812 36.8707 286.972 37.0708L286.74 36.098C287.579 35.8981 288.428 35.6945 289.287 35.4871L289.521 36.4592ZM281.88 38.2645C280.145 38.6642 278.449 39.0471 276.786 39.414L276.571 38.4375C278.23 38.0713 279.924 37.689 281.656 37.2901L281.88 38.2645ZM271.674 40.5125C269.935 40.8755 268.228 41.2205 266.545 41.5482L266.354 40.5667C268.032 40.2399 269.735 39.8958 271.47 39.5336L271.674 40.5125ZM261.403 42.509C259.668 42.8189 257.952 43.1105 256.246 43.3848L256.087 42.3975C257.787 42.1241 259.498 41.8335 261.227 41.5246L261.403 42.509ZM251.073 44.1674C249.346 44.4122 247.62 44.64 245.886 44.852L245.765 43.8594C247.492 43.6482 249.212 43.4212 250.933 43.1773L251.073 44.1674ZM240.687 45.4378C238.971 45.615 237.238 45.7781 235.48 45.9282L235.394 44.9318C237.147 44.7822 238.874 44.6197 240.585 44.4431L240.687 45.4378ZM230.265 46.3302C228.556 46.4484 226.818 46.5558 225.043 46.6534L224.988 45.6549C226.759 45.5576 228.492 45.4504 230.196 45.3326L230.265 46.3302ZM219.814 46.9081C218.114 46.9808 216.377 47.0459 214.597 47.104L214.565 46.1045C216.341 46.0466 218.074 45.9816 219.771 45.909L219.814 46.9081ZM209.372 47.2519C207.67 47.2932 205.929 47.3291 204.143 47.3602L204.126 46.3604C205.909 46.3293 207.649 46.2934 209.348 46.2522L209.372 47.2519ZM198.922 47.4363C198.057 47.4466 197.182 47.456 196.296 47.4645L196.287 46.4645C197.172 46.456 198.046 46.4466 198.91 46.4363L198.922 47.4363ZM196.296 47.4645C195.457 47.4725 194.626 47.4792 193.804 47.4845L193.797 46.4846C194.619 46.4792 195.448 46.4725 196.287 46.4645L196.296 47.4645ZM188.859 47.4999C187.169 47.4992 185.514 47.492 183.892 47.4782L183.9 46.4782C185.519 46.492 187.172 46.4992 188.86 46.4999L188.859 47.4999ZM178.938 47.4134C177.252 47.3833 175.6 47.3451 173.98 47.2988L174.008 46.2992C175.625 46.3454 177.273 46.3835 178.956 46.4136L178.938 47.4134ZM169.027 47.1273C167.345 47.0586 165.694 46.9801 164.069 46.8914L164.124 45.8928C165.744 45.9813 167.39 46.0596 169.068 46.1282L169.027 47.1273ZM159.123 46.5843C157.452 46.4678 155.805 46.3395 154.176 46.1991L154.262 45.2028C155.886 45.3427 157.527 45.4706 159.192 45.5867L159.123 46.5843ZM149.236 45.7308C147.582 45.5597 145.941 45.3752 144.307 45.177L144.427 44.1843C146.056 44.3818 147.691 44.5656 149.339 44.7361L149.236 45.7308ZM139.387 44.5371C137.753 44.3102 136.119 44.0692 134.479 43.8136L134.633 42.8255C136.268 43.0803 137.896 43.3205 139.525 43.5466L139.387 44.5371ZM129.585 43.0122C127.973 42.7356 126.348 42.4449 124.704 42.1398L124.887 41.1566C126.526 41.4609 128.146 41.7508 129.754 42.0266L129.585 43.0122ZM119.831 41.2041C118.236 40.8882 116.619 40.5592 114.976 40.2166L115.18 39.2376C116.82 39.5796 118.434 39.908 120.025 40.2231L119.831 41.2041ZM110.129 39.1843C108.544 38.8401 106.931 38.4839 105.286 38.1154L105.505 37.1396C107.148 37.5077 108.758 37.8634 110.341 38.2071L110.129 39.1843ZM100.457 37.0195C99.6569 36.8358 98.8489 36.6494 98.0328 36.4602L98.2586 35.4861C99.0741 35.6751 99.8813 35.8613 100.681 36.0448L100.457 37.0195ZM98.0328 36.4602C97.1978 36.2667 96.3566 36.0672 95.5099 35.8621L95.7454 34.8902C96.589 35.0946 97.4269 35.2933 98.2586 35.4861L98.0328 36.4602ZM90.4529 34.5882C88.7921 34.1546 87.1152 33.7026 85.4263 33.2345L85.6934 32.2708C87.3778 32.7377 89.0498 33.1884 90.7055 33.6206L90.4529 34.5882ZM80.4214 31.8109C78.7646 31.3281 77.1003 30.8322 75.4323 30.3252L75.7231 29.3684C77.3877 29.8744 79.0482 30.3692 80.7011 30.8508L80.4214 31.8109ZM70.4596 28.7851C68.8064 28.2638 67.1531 27.7337 65.5034 27.1967L65.813 26.2458C67.4598 26.7819 69.1101 27.3111 70.7603 27.8313L70.4596 28.7851ZM60.5622 25.5646C58.9106 25.0114 57.2662 24.4532 55.6329 23.892L55.9579 22.9463C57.5888 23.5067 59.2307 24.0641 60.8798 24.6164L60.5622 25.5646ZM50.7168 22.1828C49.0661 21.6023 47.4309 21.0208 45.8154 20.4405L46.1535 19.4994C47.767 20.079 49.4 20.6597 51.0485 21.2395L50.7168 22.1828ZM40.9316 18.6687C39.2743 18.0615 37.6434 17.4582 36.0436 16.8612L36.3932 15.9243C37.9912 16.5206 39.6202 17.1233 41.2756 17.7297L40.9316 18.6687ZM31.1716 15.0273C29.513 14.3976 27.8966 13.7785 26.3286 13.1733L26.6886 12.2403C28.255 12.8449 29.8697 13.4634 31.5266 14.0925L31.1716 15.0273ZM21.4615 11.2795C19.7763 10.6185 18.1643 9.98077 16.6348 9.37139L17.0049 8.44241C18.5328 9.05116 20.1432 9.68822 21.8266 10.3485L21.4615 11.2795ZM11.8128 7.43491C10.0326 6.71426 8.41821 6.05429 6.99191 5.46706L7.37265 4.54236C8.79721 5.12889 10.4097 5.78811 12.188 6.50798L11.8128 7.43491ZM196.291 46.9645L196.282 45.9645L196.291 46.9645ZM98.1457 35.9732L97.9199 36.9473L98.1457 35.9732ZM0 2L11.4599 0.584481L6.95584 11.2168L0 2ZM289.404 35.9732L289.639 36.9452L289.404 35.9732ZM380 2C380.433 2.90154 380.433 2.90155 380.433 2.90156C380.433 2.90156 380.433 2.90157 380.433 2.90158C380.433 2.90159 380.433 2.90162 380.432 2.90164C380.432 2.9017 380.432 2.90178 380.432 2.90188C380.432 2.90208 380.431 2.90237 380.43 2.90275C380.429 2.9035 380.426 2.90462 380.423 2.90609C380.417 2.90903 380.408 2.91338 380.396 2.91914C380.372 2.93065 380.336 2.94777 380.289 2.97034C380.194 3.01549 380.053 3.08248 379.868 3.17018C379.498 3.34557 378.951 3.60381 378.241 3.93582L377.394 2.12403C378.101 1.79357 378.645 1.53684 379.012 1.36289C379.195 1.27592 379.335 1.20964 379.428 1.16519C379.474 1.14297 379.509 1.1262 379.533 1.11503C379.544 1.10944 379.553 1.10526 379.559 1.10249C379.562 1.10111 379.564 1.10008 379.565 1.0994C379.566 1.09907 379.567 1.09882 379.567 1.09866C379.567 1.09858 379.567 1.09852 379.567 1.09849C379.567 1.09847 379.567 1.09846 379.567 1.09846C379.567 1.09845 379.567 1.09845 379.567 1.09845C379.567 1.09845 379.567 1.09846 380 2ZM373.828 5.97262C372.523 6.56829 371.046 7.23709 369.415 7.96677L368.598 6.14124C370.224 5.41367 371.697 4.7469 372.998 4.15316L373.828 5.97262ZM364.97 9.93786C363.566 10.5544 362.086 11.1992 360.538 11.8673L359.746 10.0309C361.29 9.36467 362.766 8.72159 364.165 8.10676L364.97 9.93786ZM356.065 13.779C354.621 14.3908 353.13 15.0165 351.599 15.6526L350.832 13.8057C352.358 13.1713 353.845 12.5475 355.285 11.9373L356.065 13.779ZM347.103 17.5021C345.632 18.1015 344.13 18.707 342.603 19.3161L341.862 17.4584C343.385 16.8512 344.882 16.2475 346.349 15.6499L347.103 17.5021ZM338.091 21.0953C336.6 21.6769 335.088 22.2595 333.561 22.8409L332.849 20.9717C334.372 20.3923 335.878 19.8117 337.365 19.232L338.091 21.0953ZM329.014 24.5491C327.504 25.1087 325.982 25.665 324.452 26.2162L323.774 24.3345C325.299 23.7855 326.815 23.2313 328.318 22.6738L329.014 24.5491ZM319.876 27.8383C318.349 28.3709 316.817 28.8964 315.282 29.4131L314.644 27.5175C316.172 27.0033 317.697 26.4801 319.218 25.9499L319.876 27.8383ZM310.668 30.9353C309.122 31.4348 307.576 31.9234 306.034 32.399L305.445 30.4878C306.978 30.015 308.515 29.5291 310.053 29.0322L310.668 30.9353ZM301.381 33.7968C299.813 34.2548 298.252 34.6972 296.701 35.1219L296.173 33.1929C297.712 32.7714 299.263 32.332 300.82 31.877L301.381 33.7968ZM291.992 36.3631C291.204 36.5625 290.419 36.7567 289.639 36.9452L289.169 35.0011C289.943 34.8143 290.72 34.6219 291.502 34.4242L291.992 36.3631ZM289.639 36.9452C288.779 37.153 287.928 37.3569 287.088 37.5572L286.624 35.6116C287.463 35.4119 288.311 35.2084 289.169 35.0011L289.639 36.9452ZM281.992 38.7518C280.256 39.1517 278.559 39.535 276.894 39.9023L276.463 37.9493C278.121 37.5834 279.813 37.2015 281.543 36.8028L281.992 38.7518ZM271.776 41.0019C270.035 41.3654 268.326 41.7108 266.641 42.039L266.258 40.0759C267.934 39.7495 269.635 39.4059 271.368 39.0441L271.776 41.0019ZM261.491 43.0012C259.753 43.3116 258.034 43.6037 256.325 43.8785L256.008 41.9038C257.705 41.6309 259.413 41.3408 261.139 41.0324L261.491 43.0012ZM251.143 44.6625C249.413 44.9077 247.684 45.1359 245.947 45.3483L245.704 43.3631C247.429 43.1523 249.145 42.9257 250.862 42.6823L251.143 44.6625ZM240.739 45.9351C239.019 46.1127 237.283 46.2761 235.522 46.4264L235.352 44.4336C237.102 44.2843 238.826 44.122 240.533 43.9457L240.739 45.9351ZM230.299 46.8291C228.588 46.9474 226.848 47.055 225.071 47.1526L224.961 45.1556C226.729 45.0585 228.46 44.9515 230.161 44.8338L230.299 46.8291ZM219.835 47.4076C218.133 47.4804 216.394 47.5456 214.614 47.6037L214.548 45.6048C216.323 45.5469 218.055 45.482 219.75 45.4094L219.835 47.4076ZM209.385 47.7517C207.681 47.793 205.938 47.829 204.152 47.8601L204.117 45.8604C205.899 45.8294 207.638 45.7935 209.336 45.7523L209.385 47.7517ZM198.928 47.9362C198.063 47.9466 197.187 47.9559 196.301 47.9644L196.282 45.9645C197.166 45.956 198.04 45.9467 198.904 45.9364L198.928 47.9362ZM196.301 47.9644C195.461 47.9725 194.63 47.9792 193.807 47.9845L193.794 45.9846C194.615 45.9792 195.444 45.9726 196.282 45.9645L196.301 47.9644ZM188.859 47.9999C187.167 47.9992 185.511 47.992 183.888 47.9782L183.905 45.9783C185.522 45.992 187.173 45.9992 188.86 45.9999L188.859 47.9999ZM178.929 47.9133C177.241 47.8832 175.588 47.845 173.966 47.7985L174.023 45.7994C175.638 45.8456 177.284 45.8836 178.965 45.9136L178.929 47.9133ZM169.006 47.6269C167.322 47.5581 165.669 47.4795 164.042 47.3906L164.151 45.3936C165.769 45.4819 167.413 45.5602 169.088 45.6286L169.006 47.6269ZM159.088 47.0831C157.415 46.9664 155.765 46.8378 154.133 46.6972L154.305 44.7046C155.926 44.8443 157.565 44.972 159.227 45.0879L159.088 47.0831ZM149.185 46.2282C147.528 46.0567 145.884 45.8719 144.246 45.6734L144.487 43.6879C146.113 43.885 147.745 44.0685 149.39 44.2388L149.185 46.2282ZM139.318 45.0323C137.682 44.8051 136.045 44.5636 134.402 44.3076L134.709 42.3315C136.342 42.5858 137.968 42.8257 139.593 43.0513L139.318 45.0323ZM129.501 43.505C127.886 43.228 126.258 42.9369 124.613 42.6314L124.978 40.665C126.615 40.9689 128.233 41.2584 129.839 41.5338L129.501 43.505ZM119.734 41.6946C118.137 41.3784 116.519 41.049 114.874 40.706L115.282 38.7481C116.921 39.0898 118.533 39.4179 120.122 39.7327L119.734 41.6946ZM110.023 39.6729C108.436 39.3285 106.822 38.972 105.177 38.6033L105.615 36.6517C107.256 37.0195 108.865 37.375 110.447 37.7184L110.023 39.6729ZM100.345 37.5068C99.5446 37.3231 98.7364 37.1366 97.9199 36.9473L98.3715 34.999C99.1867 35.1879 99.9936 35.3741 100.793 35.5575L100.345 37.5068ZM97.9199 36.9473C97.0832 36.7534 96.2404 36.5535 95.3922 36.348L95.8632 34.4042C96.7051 34.6083 97.5414 34.8066 98.3715 34.999L97.9199 36.9473ZM90.3266 35.072C88.6632 34.6377 86.9839 34.1851 85.2927 33.7163L85.827 31.789C87.5091 32.2553 89.1787 32.7053 90.8318 33.1368L90.3266 35.072ZM80.2815 32.2909C78.6228 31.8076 76.9566 31.3111 75.2869 30.8036L75.8685 28.89C77.5313 29.3955 79.1901 29.8897 80.841 30.3708L80.2815 32.2909ZM70.3092 29.2619C68.6545 28.7402 66.9997 28.2096 65.3487 27.6721L65.9678 25.7704C67.6132 26.306 69.2621 26.8347 70.9106 27.3545L70.3092 29.2619ZM60.4034 26.0387C58.7505 25.4851 57.1049 24.9265 55.4704 24.3649L56.1203 22.4734C57.7502 23.0334 59.3908 23.5904 61.0386 24.1423L60.4034 26.0387ZM50.5509 22.6545C48.8991 22.0736 47.2629 21.4918 45.6464 20.9111L46.3225 19.0289C47.935 19.6081 49.567 20.1885 51.2144 20.7678L50.5509 22.6545ZM40.7596 19.1382C39.1013 18.5307 37.4695 17.927 35.8688 17.3297L36.568 15.4559C38.1651 16.0519 39.7932 16.6541 41.4476 17.2602L40.7596 19.1382ZM30.9942 15.4948C29.3346 14.8647 27.7174 14.2453 26.1485 13.6397L26.8687 11.7739C28.4343 12.3781 30.0481 12.9963 31.7041 13.625L30.9942 15.4948ZM21.2789 11.7449C19.5928 11.0836 17.98 10.4456 16.4497 9.83588L17.19 7.97792C18.7171 8.58636 20.3266 9.22308 22.0092 9.88304L21.2789 11.7449ZM11.6252 7.89838C9.84399 7.17734 8.22873 6.51699 6.80157 5.9294L7.56299 4.08002C8.98669 4.66618 10.5983 5.32504 12.3756 6.04451L11.6252 7.89838Z" fill="#D9D9D9"/>
<defs>
<clipPath id="clip0_309_691">
<rect width="24" height="24" fill="white" transform="translate(178 35)"/>
</clipPath>
</defs>
</svg>
