<svg width="381" height="59" viewBox="0 0 381 59" fill="none" xmlns="http://www.w3.org/2000/svg">
<g clip-path="url(#clip0_309_690)">
<circle cx="191" cy="12" r="12" fill="#A8DA90"/>
<path d="M192.119 7.2V17H190.733V8.418H188.521V7.2H192.119Z" fill="black"/>
</g>
<path d="M184.709 12.0355L184.713 12.5355L184.709 12.0355ZM282.854 23.0268L282.967 22.5398L282.854 23.0268ZM381 57L375.27 57.7078L377.522 52.3916L381 57ZM91.596 23.0268L91.4786 22.5408L91.596 23.0268ZM1 57C0.783657 56.5492 0.783664 56.5492 0.783674 56.5492C0.783681 56.5492 0.783694 56.5492 0.783709 56.5492C0.783738 56.5492 0.783778 56.5492 0.78383 56.5491C0.783935 56.5491 0.784086 56.549 0.784284 56.5489C0.784679 56.5487 0.785261 56.5485 0.786029 56.5481C0.787565 56.5474 0.789845 56.5463 0.792867 56.5448C0.798909 56.5419 0.807915 56.5376 0.819856 56.5319C0.843738 56.5205 0.879362 56.5034 0.926505 56.4809C1.02079 56.436 1.16115 56.3692 1.3458 56.2816C1.71511 56.1066 2.26158 55.8488 2.97095 55.5171L3.39445 56.423C2.68675 56.7539 2.14187 57.011 1.77409 57.1853C1.5902 57.2724 1.45059 57.3389 1.35704 57.3835C1.31026 57.4058 1.275 57.4227 1.25148 57.4339C1.23971 57.4396 1.23089 57.4438 1.22502 57.4466C1.22209 57.448 1.2199 57.4491 1.21845 57.4498C1.21773 57.4501 1.21719 57.4504 1.21684 57.4505C1.21666 57.4506 1.21653 57.4507 1.21645 57.4507C1.21641 57.4507 1.21638 57.4508 1.21636 57.4508C1.21635 57.4508 1.21635 57.4508 1.21634 57.4508C1.21634 57.4508 1.21634 57.4508 1 57ZM7.37915 53.4822C8.68323 52.8871 10.1596 52.2188 11.7888 51.4896L12.1973 52.4024C10.5704 53.1305 9.09632 53.7978 7.79435 54.392L7.37915 53.4822ZM16.2313 49.5199C17.6337 48.9038 19.1127 48.2594 20.6602 47.5918L21.0563 48.51C19.5109 49.1767 18.034 49.8202 16.6335 50.4355L16.2313 49.5199ZM25.1296 45.6814C26.5733 45.07 28.0628 44.4448 29.5927 43.8092L29.9764 44.7326C28.4487 45.3674 26.9613 45.9917 25.5196 46.6022L25.1296 45.6814ZM34.0852 41.9609C35.5558 41.362 37.0562 40.757 38.5824 40.1483L38.9529 41.0772C37.429 41.6849 35.9308 42.289 34.4624 42.8871L34.0852 41.9609ZM43.0904 38.3705C44.5808 37.7894 46.0908 37.2073 47.6171 36.6264L47.9728 37.561C46.4492 38.1409 44.9416 38.722 43.4536 39.3022L43.0904 38.3705ZM52.1602 34.9197C53.6683 34.3607 55.1885 33.8049 56.7175 33.2542L57.0564 34.1951C55.5303 34.7446 54.0131 35.2994 52.5078 35.8574L52.1602 34.9197ZM61.2883 31.6338C62.8135 31.1018 64.3444 30.5768 65.8779 30.0608L66.1968 31.0086C64.667 31.5234 63.1396 32.0472 61.6176 32.578L61.2883 31.6338ZM70.4862 28.5404C72.0299 28.0416 73.5733 27.5537 75.1132 27.0788L75.4079 28.0344C73.8725 28.5079 72.3334 28.9945 70.7936 29.492L70.4862 28.5404ZM79.7589 25.6832C81.3244 25.2259 82.883 24.7842 84.4313 24.3603L84.6954 25.3248C83.1528 25.7472 81.5997 26.1873 80.0393 26.6431L79.7589 25.6832ZM89.1304 23.1216C89.9169 22.9226 90.6998 22.7289 91.4786 22.5408L91.7134 23.5129C90.9382 23.7001 90.1588 23.8929 89.3757 24.091L89.1304 23.1216ZM91.4786 22.5408C92.3383 22.3332 93.188 22.1293 94.0281 21.9292L94.2598 22.902C93.4208 23.1019 92.5721 23.3055 91.7134 23.5129L91.4786 22.5408ZM99.12 20.7355C100.855 20.3358 102.551 19.9529 104.214 19.586L104.429 20.5625C102.77 20.9287 101.076 21.311 99.3445 21.7099L99.12 20.7355ZM109.326 18.4875C111.065 18.1245 112.772 17.7795 114.455 17.4518L114.646 18.4333C112.968 18.7601 111.265 19.1042 109.53 19.4664L109.326 18.4875ZM119.597 16.491C121.332 16.1811 123.048 15.8895 124.754 15.6152L124.913 16.6025C123.213 16.8759 121.502 17.1665 119.773 17.4754L119.597 16.491ZM129.927 14.8326C131.654 14.5878 133.38 14.36 135.114 14.148L135.235 15.1406C133.508 15.3518 131.788 15.5788 130.067 15.8227L129.927 14.8326ZM140.313 13.5622C142.029 13.385 143.762 13.2219 145.52 13.0718L145.606 14.0682C143.853 14.2178 142.126 14.3803 140.415 14.5569L140.313 13.5622ZM150.735 12.6698C152.444 12.5516 154.182 12.4442 155.957 12.3466L156.012 13.3451C154.241 13.4424 152.508 13.5496 150.804 13.6674L150.735 12.6698ZM161.186 12.0919C162.886 12.0192 164.623 11.9541 166.403 11.896L166.435 12.8955C164.659 12.9534 162.926 13.0184 161.229 13.091L161.186 12.0919ZM171.628 11.7481C173.33 11.7068 175.071 11.6709 176.857 11.6398L176.874 12.6396C175.091 12.6707 173.351 12.7066 171.652 12.7478L171.628 11.7481ZM182.078 11.5637C182.943 11.5534 183.818 11.544 184.704 11.5355L184.713 12.5355C183.828 12.544 182.954 12.5534 182.09 12.5637L182.078 11.5637ZM184.704 11.5355C185.543 11.5275 186.374 11.5208 187.196 11.5155L187.203 12.5154C186.381 12.5208 185.552 12.5275 184.713 12.5355L184.704 11.5355ZM192.141 11.5001C193.831 11.5008 195.486 11.508 197.108 11.5218L197.1 12.5218C195.481 12.508 193.828 12.5008 192.14 12.5001L192.141 11.5001ZM202.062 11.5866C203.748 11.6167 205.4 11.6549 207.02 11.7012L206.992 12.7008C205.375 12.6546 203.727 12.6165 202.044 12.5864L202.062 11.5866ZM211.973 11.8727C213.655 11.9414 215.306 12.0199 216.931 12.1086L216.876 13.1072C215.256 13.0187 213.61 12.9404 211.932 12.8718L211.973 11.8727ZM221.877 12.4157C223.548 12.5322 225.195 12.6605 226.824 12.8009L226.738 13.7972C225.114 13.6573 223.473 13.5294 221.808 13.4133L221.877 12.4157ZM231.764 13.2692C233.418 13.4403 235.059 13.6248 236.693 13.823L236.573 14.8157C234.944 14.6182 233.309 14.4344 231.661 14.2639L231.764 13.2692ZM241.613 14.4629C243.247 14.6898 244.881 14.9308 246.521 15.1864L246.367 16.1745C244.732 15.9197 243.104 15.6795 241.475 15.4534L241.613 14.4629ZM251.415 15.9878C253.027 16.2644 254.652 16.5551 256.296 16.8602L256.113 17.8434C254.474 17.5391 252.854 17.2492 251.246 16.9734L251.415 15.9878ZM261.169 17.7959C262.764 18.1118 264.381 18.4408 266.024 18.7834L265.82 19.7624C264.18 19.4204 262.566 19.092 260.975 18.7769L261.169 17.7959ZM270.871 19.8157C272.456 20.1599 274.069 20.5161 275.714 20.8846L275.495 21.8604C273.852 21.4923 272.242 21.1366 270.659 20.7929L270.871 19.8157ZM280.543 21.9805C281.343 22.1642 282.151 22.3506 282.967 22.5398L282.741 23.5139C281.926 23.3249 281.119 23.1387 280.319 22.9552L280.543 21.9805ZM282.967 22.5398C283.802 22.7333 284.643 22.9328 285.49 23.1379L285.255 24.1098C284.411 23.9054 283.573 23.7067 282.741 23.5139L282.967 22.5398ZM290.547 24.4118C292.208 24.8454 293.885 25.2974 295.574 25.7655L295.307 26.7292C293.622 26.2623 291.95 25.8116 290.295 25.3794L290.547 24.4118ZM300.579 27.1891C302.235 27.6719 303.9 28.1678 305.568 28.6748L305.277 29.6316C303.612 29.1256 301.952 28.6308 300.299 28.1492L300.579 27.1891ZM310.54 30.2149C312.194 30.7362 313.847 31.2663 315.497 31.8033L315.187 32.7542C313.54 32.2181 311.89 31.6889 310.24 31.1687L310.54 30.2149ZM320.438 33.4354C322.089 33.9886 323.734 34.5468 325.367 35.108L325.042 36.0537C323.411 35.4933 321.769 34.9359 320.12 34.3836L320.438 33.4354ZM330.283 36.8172C331.934 37.3977 333.569 37.9792 335.185 38.5595L334.846 39.5006C333.233 38.921 331.6 38.3403 329.951 37.7605L330.283 36.8172ZM340.068 40.3313C341.726 40.9385 343.357 41.5418 344.956 42.1388L344.607 43.0757C343.009 42.4794 341.38 41.8767 339.724 41.2703L340.068 40.3313ZM349.828 43.9727C351.487 44.6024 353.103 45.2215 354.671 45.8267L354.311 46.7597C352.745 46.1551 351.13 45.5366 349.473 44.9075L349.828 43.9727ZM359.539 47.7205C361.224 48.3815 362.836 49.0192 364.365 49.6286L363.995 50.5576C362.467 49.9488 360.857 49.3118 359.173 48.6515L359.539 47.7205ZM369.187 51.5651C370.967 52.2857 372.582 52.9457 374.008 53.5329L373.627 54.4576C372.203 53.8711 370.59 53.2119 368.812 52.492L369.187 51.5651ZM184.709 12.0355L184.718 13.0355L184.709 12.0355ZM282.854 23.0268L283.08 22.0527L282.854 23.0268ZM381 57L369.54 58.4155L374.044 47.7832L381 57ZM91.596 23.0268L91.3613 22.0548L91.596 23.0268ZM1 57C0.567315 56.0985 0.567326 56.0984 0.56734 56.0984C0.567348 56.0984 0.567365 56.0984 0.567383 56.0984C0.567417 56.0984 0.567463 56.0984 0.567521 56.0984C0.567636 56.0983 0.567798 56.0982 0.568007 56.0981C0.568424 56.0979 0.569028 56.0976 0.569818 56.0973C0.571399 56.0965 0.573723 56.0954 0.576789 56.0939C0.58292 56.091 0.592015 56.0866 0.604046 56.0809C0.628108 56.0693 0.663913 56.0522 0.711239 56.0297C0.805891 55.9845 0.946626 55.9175 1.13166 55.8298C1.50173 55.6544 2.049 55.3962 2.7592 55.0642L3.6062 56.876C2.89933 57.2064 2.35525 57.4632 1.98824 57.6371C1.80473 57.7241 1.66549 57.7904 1.5723 57.8348C1.52571 57.857 1.49063 57.8738 1.46729 57.885C1.45561 57.8906 1.44688 57.8947 1.4411 57.8975C1.43821 57.8989 1.43606 57.8999 1.43466 57.9006C1.43396 57.9009 1.43344 57.9012 1.43311 57.9013C1.43295 57.9014 1.43283 57.9015 1.43276 57.9015C1.43272 57.9015 1.4327 57.9015 1.43269 57.9015C1.43268 57.9015 1.43268 57.9015 1.43268 57.9015C1.43268 57.9015 1.43269 57.9015 1 57ZM7.17154 53.0274C8.47669 52.4317 9.95414 51.7629 11.5846 51.0332L12.4016 52.8588C10.7758 53.5863 9.30286 54.2531 8.00195 54.8468L7.17154 53.0274ZM16.0302 49.0621C17.4336 48.4456 18.9136 47.8008 20.4621 47.1327L21.2543 48.9691C19.7101 49.6353 18.2341 50.2784 16.8346 50.8932L16.0302 49.0621ZM24.9346 45.221C26.3794 44.6092 27.8699 43.9835 29.4009 43.3474L30.1682 45.1943C28.6416 45.8287 27.1553 46.4525 25.7145 47.0627L24.9346 45.221ZM33.8966 41.4979C35.3683 40.8985 36.8698 40.293 38.3972 39.6839L39.1381 41.5416C37.6154 42.1488 36.1183 42.7525 34.651 43.3501L33.8966 41.4979ZM42.9087 37.9047C44.4003 37.3231 45.9117 36.7405 47.4392 36.1591L48.1506 38.0283C46.6283 38.6077 45.1221 39.1883 43.6353 39.768L42.9087 37.9047ZM51.9864 34.4509C53.4959 33.8913 55.0176 33.335 56.5481 32.7838L57.2258 34.6655C55.7013 35.2145 54.1855 35.7687 52.6816 36.3262L51.9864 34.4509ZM61.1236 31.1617C62.6505 30.6291 64.1831 30.1036 65.7184 29.5869L66.3563 31.4825C64.8283 31.9967 63.3026 32.5199 61.7823 33.0501L61.1236 31.1617ZM70.3324 28.0647C71.8782 27.5652 73.4237 27.0766 74.9658 26.601L75.5553 28.5122C74.0221 28.985 72.4851 29.4709 70.9474 29.9678L70.3324 28.0647ZM79.6188 25.2032C81.1868 24.7452 82.7481 24.3028 84.2993 23.8781L84.8274 25.8071C83.2877 26.2286 81.7373 26.668 80.1795 27.123L79.6188 25.2032ZM89.0078 22.6369C89.796 22.4375 90.5806 22.2433 91.3613 22.0548L91.8308 23.9989C91.0574 24.1857 90.2797 24.3781 89.4983 24.5758L89.0078 22.6369ZM91.3613 22.0548C92.2214 21.847 93.0716 21.6431 93.9122 21.4428L94.3757 23.3884C93.5372 23.5881 92.689 23.7916 91.8308 23.9989L91.3613 22.0548ZM99.0077 20.2482C100.744 19.8483 102.441 19.465 104.106 19.0977L104.537 21.0507C102.879 21.4166 101.187 21.7985 99.4567 22.1972L99.0077 20.2482ZM109.224 17.9981C110.965 17.6346 112.674 17.2892 114.359 16.961L114.742 18.9241C113.066 19.2505 111.365 19.5941 109.632 19.9559L109.224 17.9981ZM119.509 15.9988C121.247 15.6884 122.966 15.3963 124.675 15.1215L124.992 17.0962C123.295 17.3691 121.587 17.6592 119.861 17.9676L119.509 15.9988ZM129.857 14.3375C131.587 14.0923 133.316 13.8641 135.053 13.6517L135.296 15.6369C133.571 15.8477 131.855 16.0743 130.138 16.3177L129.857 14.3375ZM140.261 13.0649C141.981 12.8873 143.717 12.7239 145.478 12.5736L145.648 14.5664C143.898 14.7157 142.174 14.878 140.467 15.0543L140.261 13.0649ZM150.701 12.1709C152.412 12.0526 154.152 11.945 155.929 11.8474L156.039 13.8444C154.271 13.9415 152.54 14.0485 150.839 14.1662L150.701 12.1709ZM161.165 11.5924C162.867 11.5196 164.606 11.4544 166.386 11.3963L166.452 13.3952C164.677 13.4531 162.945 13.518 161.25 13.5906L161.165 11.5924ZM171.615 11.2483C173.319 11.207 175.062 11.171 176.848 11.1399L176.883 13.1396C175.101 13.1706 173.362 13.2065 171.664 13.2477L171.615 11.2483ZM182.072 11.0638C182.937 11.0534 183.813 11.0441 184.699 11.0356L184.718 13.0355C183.834 13.044 182.96 13.0533 182.096 13.0636L182.072 11.0638ZM184.699 11.0356C185.539 11.0275 186.37 11.0208 187.193 11.0155L187.206 13.0154C186.385 13.0208 185.556 13.0274 184.718 13.0355L184.699 11.0356ZM192.141 11.0001C193.833 11.0008 195.489 11.008 197.112 11.0218L197.095 13.0217C195.478 13.008 193.827 13.0008 192.14 13.0001L192.141 11.0001ZM202.071 11.0867C203.759 11.1168 205.412 11.155 207.034 11.2015L206.977 13.2006C205.362 13.1544 203.716 13.1164 202.035 13.0864L202.071 11.0867ZM211.994 11.3731C213.678 11.4419 215.331 11.5205 216.958 11.6094L216.849 13.6064C215.231 13.5181 213.587 13.4398 211.912 13.3714L211.994 11.3731ZM221.912 11.9169C223.585 12.0336 225.235 12.1622 226.867 12.3028L226.695 14.2954C225.074 14.1557 223.435 14.028 221.773 13.9121L221.912 11.9169ZM231.815 12.7718C233.472 12.9433 235.116 13.1281 236.754 13.3266L236.513 15.3121C234.887 15.115 233.255 14.9315 231.61 14.7612L231.815 12.7718ZM241.682 13.9677C243.318 14.1949 244.955 14.4364 246.598 14.6924L246.291 16.6685C244.658 16.4142 243.032 16.1743 241.407 15.9487L241.682 13.9677ZM251.499 15.495C253.114 15.772 254.742 16.0631 256.387 16.3686L256.022 18.335C254.385 18.0311 252.767 17.7416 251.161 17.4662L251.499 15.495ZM261.266 17.3054C262.863 17.6216 264.481 17.951 266.126 18.294L265.718 20.2519C264.079 19.9102 262.467 19.5821 260.878 19.2673L261.266 17.3054ZM270.977 19.3271C272.564 19.6715 274.178 20.028 275.823 20.3967L275.385 22.3483C273.744 21.9805 272.135 21.625 270.553 21.2816L270.977 19.3271ZM280.655 21.4932C281.455 21.6769 282.264 21.8634 283.08 22.0527L282.629 24.001C281.813 23.8121 281.006 23.6259 280.207 23.4425L280.655 21.4932ZM283.08 22.0527C283.917 22.2466 284.76 22.4465 285.608 22.652L285.137 24.5958C284.295 24.3917 283.459 24.1934 282.629 24.001L283.08 22.0527ZM290.673 23.928C292.337 24.3623 294.016 24.8149 295.707 25.2837L295.173 27.211C293.491 26.7447 291.821 26.2947 290.168 25.8632L290.673 23.928ZM300.719 26.7091C302.377 27.1924 304.043 27.6889 305.713 28.1964L305.131 30.11C303.469 29.6045 301.81 29.1103 300.159 28.6292L300.719 26.7091ZM310.691 29.7381C312.346 30.2598 314 30.7904 315.651 31.3279L315.032 33.2296C313.387 32.694 311.738 32.1653 310.089 31.6455L310.691 29.7381ZM320.597 32.9613C322.25 33.5149 323.895 34.0735 325.53 34.6351L324.88 36.5266C323.25 35.9666 321.609 35.4096 319.961 34.8577L320.597 32.9613ZM330.449 36.3455C332.101 36.9264 333.737 37.5082 335.354 38.0889L334.677 39.9711C333.065 39.3919 331.433 38.8115 329.786 38.2322L330.449 36.3455ZM340.24 39.8618C341.899 40.4693 343.531 41.073 345.131 41.6703L344.432 43.5441C342.835 42.9481 341.207 42.3459 339.552 41.7398L340.24 39.8618ZM350.006 43.5052C351.665 44.1353 353.283 44.7547 354.852 45.3603L354.131 47.2261C352.566 46.6219 350.952 46.0037 349.296 45.375L350.006 43.5052ZM359.721 47.2551C361.407 47.9164 363.02 48.5544 364.55 49.1641L363.81 51.0221C362.283 50.4136 360.673 49.7769 358.991 49.117L359.721 47.2551ZM369.375 51.1016C371.156 51.8227 372.771 52.483 374.198 53.0706L373.437 54.92C372.013 54.3338 370.402 53.675 368.624 52.9555L369.375 51.1016Z" fill="#D9D9D9"/>
<defs>
<clipPath id="clip0_309_690">
<rect width="24" height="24" fill="white" transform="translate(179)"/>
</clipPath>
</defs>
</svg>
