<svg width="38" height="26" viewBox="0 0 38 26" fill="none" xmlns="http://www.w3.org/2000/svg">
<path fill-rule="evenodd" clip-rule="evenodd" d="M26.3031 3.66634L29.3737 9.80758L33.9998 12.8916V18.6663H32.0487C31.3623 16.7244 29.5102 15.333 27.3332 15.333C25.1563 15.333 23.3043 16.7242 22.6178 18.666H15.3819C14.6954 16.7242 12.8434 15.333 10.6665 15.333C8.48947 15.333 6.63741 16.7244 5.95101 18.6663H3.99984V3.66634H26.3031ZM33.9998 21.9997H32.0487C31.3623 23.9417 29.5102 25.333 27.3332 25.333C25.156 25.333 23.3039 23.9415 22.6176 21.9993H15.3821C14.6958 23.9415 12.8437 25.333 10.6665 25.333C8.48947 25.333 6.63741 23.9417 5.95101 21.9997H3.99984C2.15889 21.9997 0.666504 20.5073 0.666504 18.6663V3.66634C0.666504 1.82539 2.15889 0.333008 3.99984 0.333008H26.3031C27.5657 0.333008 28.7199 1.04635 29.2845 2.17563L31.9593 7.52511L37.3332 11.1077V18.6663C37.3332 20.5073 35.8408 21.9997 33.9998 21.9997ZM12.3333 20.3327C12.3333 21.2532 11.5871 21.9993 10.6667 21.9993C9.74619 21.9993 9 21.2532 9 20.3327C9 19.4122 9.74619 18.666 10.6667 18.666C11.5871 18.666 12.3333 19.4122 12.3333 20.3327ZM28.9998 20.3327C28.9998 21.2532 28.2536 21.9993 27.3332 21.9993C26.4127 21.9993 25.6665 21.2532 25.6665 20.3327C25.6665 19.4122 26.4127 18.666 27.3332 18.666C28.2536 18.666 28.9998 19.4122 28.9998 20.3327Z" fill="#A8DA90"/>
</svg>
