<svg width="77" height="76" viewBox="0 0 77 76" fill="none" xmlns="http://www.w3.org/2000/svg">
<path d="M39 75.5C59.7107 75.5 76 59.2107 76 38.5C76 17.7893 59.7107 0.5 39 0.5C18.2893 0.5 1 17.7893 1 38.5C1 59.2107 18.2893 75.5 39 75.5Z" stroke="black" stroke-linecap="round" stroke-linejoin="round"/>
<path d="M39 34V8M39 8C46.2124 7.99984 53.5872 10.1756 59 15C64.4128 19.8244 67.0883 26.7588 68 34M73 38H43" stroke="black" stroke-linecap="round" stroke-linejoin="round"/>
<path d="M39 42C41.4853 42 43 40.4853 43 38C43 35.5147 41.4853 33 39 33C36.5147 33 34 35.5147 34 38C34 40.4853 36.5147 42 39 42Z" stroke="black" stroke-linecap="round" stroke-linejoin="round"/>
</svg>
