<svg width="38" height="38" viewBox="0 0 38 38" fill="none" xmlns="http://www.w3.org/2000/svg">
<path fill-rule="evenodd" clip-rule="evenodd" d="M0.666504 19.0003C0.666504 29.1255 8.87462 37.3337 18.9998 37.3337C29.1251 37.3337 37.3332 29.1255 37.3332 19.0003C37.3332 8.8751 29.1251 0.666992 18.9998 0.666992C8.87462 0.666992 0.666504 8.8751 0.666504 19.0003ZM34 19C34 27.2843 27.2843 34 19 34C10.7157 34 4 27.2843 4 19C4 10.7157 10.7157 4 19 4C27.2843 4 34 10.7157 34 19ZM19.0533 30.667C13.4575 30.667 10.3439 27.7197 10.3439 22.3337V20.667H27.5261L27.5722 22.2862C27.7261 27.6911 24.6671 30.667 19.0533 30.667ZM24.1456 24C23.7541 26.3258 22.1813 27.3333 19.0532 27.3333C15.9268 27.3333 14.3027 26.3171 13.8276 24H24.1456ZM22.333 12.334H27.333V15.6673H22.333V12.334ZM15.6665 12.334H10.6665V15.6673H15.6665V12.334Z" fill="#A8DA90"/>
</svg>
