<svg width="77" height="76" viewBox="0 0 77 76" fill="none" xmlns="http://www.w3.org/2000/svg">
<path d="M1 19.5H76M10 0.5H67C69.4864 0.5 71.2418 1.74185 73 3.5C74.7582 5.25815 76 7.0136 76 9.5V66.5C76 68.9864 74.7582 70.7418 73 72.5C71.2418 74.2582 69.4864 75.5 67 75.5H10C7.5136 75.5 5.75815 74.2582 4 72.5C2.24185 70.7418 1 68.9864 1 66.5V9.5C1 7.0136 2.24185 5.25815 4 3.5C5.75815 1.74185 7.5136 0.5 10 0.5V0.5Z" stroke="black" stroke-linecap="round" stroke-linejoin="round"/>
<path d="M62 35C62.5523 35 63 34.5523 63 34C63 33.4477 62.5523 33 62 33C61.4477 33 61 33.4477 61 34C61 34.5523 61.4477 35 62 35Z" fill="black"/>
<path d="M50 35C50.5523 35 51 34.5523 51 34C51 33.4477 50.5523 33 50 33C49.4477 33 49 33.4477 49 34C49 34.5523 49.4477 35 50 35Z" fill="black"/>
<path d="M38 35C38.5523 35 39 34.5523 39 34C39 33.4477 38.5523 33 38 33C37.4477 33 37 33.4477 37 34C37 34.5523 37.4477 35 38 35Z" fill="black"/>
<path d="M50 59C50.5523 59 51 58.5523 51 58C51 57.4477 50.5523 57 50 57C49.4477 57 49 57.4477 49 58C49 58.5523 49.4477 59 50 59Z" fill="black"/>
<path d="M38 59C38.5523 59 39 58.5523 39 58C39 57.4477 38.5523 57 38 57C37.4477 57 37 57.4477 37 58C37 58.5523 37.4477 59 38 59Z" fill="black"/>
<path d="M26 59C26.5523 59 27 58.5523 27 58C27 57.4477 26.5523 57 26 57C25.4477 57 25 57.4477 25 58C25 58.5523 25.4477 59 26 59Z" fill="black"/>
<path d="M14 59C14.5523 59 15 58.5523 15 58C15 57.4477 14.5523 57 14 57C13.4477 57 13 57.4477 13 58C13 58.5523 13.4477 59 14 59Z" fill="black"/>
<path d="M62 47C62.5523 47 63 46.5523 63 46C63 45.4477 62.5523 45 62 45C61.4477 45 61 45.4477 61 46C61 46.5523 61.4477 47 62 47Z" fill="black"/>
<path d="M50 47C50.5523 47 51 46.5523 51 46C51 45.4477 50.5523 45 50 45C49.4477 45 49 45.4477 49 46C49 46.5523 49.4477 47 50 47Z" fill="black"/>
<path d="M38 47C38.5523 47 39 46.5523 39 46C39 45.4477 38.5523 45 38 45C37.4477 45 37 45.4477 37 46C37 46.5523 37.4477 47 38 47Z" fill="black"/>
<path d="M26 47C26.5523 47 27 46.5523 27 46C27 45.4477 26.5523 45 26 45C25.4477 45 25 45.4477 25 46C25 46.5523 25.4477 47 26 47Z" fill="black"/>
<path d="M14 47C14.5523 47 15 46.5523 15 46C15 45.4477 14.5523 45 14 45C13.4477 45 13 45.4477 13 46C13 46.5523 13.4477 47 14 47Z" fill="black"/>
</svg>
