<svg width="34" height="34" viewBox="0 0 34 34" fill="none" xmlns="http://www.w3.org/2000/svg">
<path fill-rule="evenodd" clip-rule="evenodd" d="M7.11891 3.67058C6.82291 3.66994 6.53757 3.70344 6.26642 3.76713C5.89473 2.9479 5.40376 2.21291 4.84534 1.6545C3.89755 0.706709 2.40275 0.333008 0.333496 0.333008V3.66634C1.59758 3.66634 2.32499 3.8482 2.48832 4.01152C3.11827 4.64147 3.66683 5.92144 3.66683 6.99967L3.68358 7.23538L5.3167 18.6672C2.58409 18.809 0.467159 20.931 0.335544 23.5837L0.333496 25.333C0.494865 28.0729 2.60475 30.1806 5.23889 30.3303L5.61726 30.3309C6.30306 32.274 8.15568 33.6663 10.3335 33.6663C12.5105 33.6663 14.3626 32.275 15.049 30.333H18.9513C19.6377 32.275 21.4898 33.6663 23.6668 33.6663C26.4283 33.6663 28.6668 31.4278 28.6668 28.6663C28.6668 25.9049 26.4283 23.6663 23.6668 23.6663C21.4898 23.6663 19.6377 25.0577 18.9513 26.9997H15.049C14.3626 25.0577 12.5105 23.6663 10.3335 23.6663C8.15646 23.6663 6.3044 25.0577 5.61801 26.9997H5.3335C4.48351 26.9487 3.72106 26.187 3.66384 25.2332L3.66683 23.6663C3.71177 22.8019 4.46901 22.0446 5.41609 21.9976L8.70632 21.9984L8.73016 21.9997H25.5283L25.7743 21.9216C27.038 21.5206 28.0496 20.5691 28.5285 19.3372L28.7041 18.9897L28.709 18.98C28.9402 18.5222 28.9425 18.5176 29.2746 17.8595C29.8648 16.6895 30.455 15.5176 31.0301 14.3727C32.4388 11.5681 33.3248 9.78578 33.521 9.3481C34.5286 7.10043 32.4875 5.37045 30.4013 5.33361L7.11891 3.67058ZM24.9492 18.6663H8.85495C8.74793 18.6366 8.66638 18.5459 8.65042 18.433L7.01726 7.0009L30.1558 8.65788C29.7509 9.48354 29.015 10.9583 28.0514 12.8765L28.0273 12.9246C27.4773 14.0194 26.8879 15.1898 26.2985 16.3581C25.9668 17.0154 25.9645 17.0201 25.7337 17.4771L25.7287 17.4869L25.5128 17.9144L25.4315 18.1034C25.3444 18.3459 25.1715 18.5453 24.9492 18.6663ZM23.6667 30.3333C24.5871 30.3333 25.3333 29.5871 25.3333 28.6667C25.3333 27.7462 24.5871 27 23.6667 27C22.7462 27 22 27.7462 22 28.6667C22 29.5871 22.7462 30.3333 23.6667 30.3333ZM12.0003 28.6667C12.0003 29.5871 11.2541 30.3333 10.3337 30.3333C9.41318 30.3333 8.66699 29.5871 8.66699 28.6667C8.66699 27.7462 9.41318 27 10.3337 27C11.2541 27 12.0003 27.7462 12.0003 28.6667Z" fill="#A8DA90"/>
</svg>
