<svg width="20" height="21" viewBox="0 0 20 21" fill="none" xmlns="http://www.w3.org/2000/svg">
<path d="M10.9792 1.02512C10.6325 0.32496 9.3675 0.324957 9.02078 1.02512L7.06233 6.11389C6.89105 6.45977 6.42054 7.07193 6.0831 7.13165L1.18698 8.1494C0.418391 8.28542 -0.390812 8.58606 0.207757 9.16715L4.12465 12.2204C4.44021 12.5268 4.20131 13.7842 4.12465 14.2559L3.14543 19.3447C3.00446 20.2121 4.43707 20.7738 5.10388 20.3624L9.02078 17.3092C9.34874 17.1068 10.6513 17.1068 10.9792 17.3092L14.8961 20.3624C15.5629 20.7738 16.9955 20.2121 16.8546 19.3447L15.8753 14.2559C15.7987 13.7842 15.5598 12.5268 15.8753 12.2204L19.7922 9.16715C20.3908 8.58607 19.5816 8.28543 18.813 8.1494L13.9169 7.13165C13.5795 7.07192 13.109 6.45977 12.9377 6.11389L10.9792 1.02512Z" fill="#FFEBB6"/>
</svg>
