<svg width="19" height="21" viewBox="0 0 19 21" fill="none" xmlns="http://www.w3.org/2000/svg">
<path fill-rule="evenodd" clip-rule="evenodd" d="M3.81077 5.3388V5.20738C3.81077 2.8309 5.56858 0.75591 8.08315 0.16407C9.0126 -0.0546898 9.98741 -0.0546899 10.9169 0.16407C13.4314 0.755911 15.1892 2.83091 15.1892 5.20739V5.3388H16.9872C17.6714 5.3388 18.2521 5.79813 18.3513 6.41781L18.6132 8.05397C19.1289 11.2754 19.1289 14.5484 18.6132 17.7698C18.3642 19.3255 16.9937 20.5281 15.285 20.6903L14.5318 20.7618C11.1862 21.0794 7.81375 21.0794 4.46817 20.7618L3.71495 20.6903C2.00634 20.5281 0.635787 19.3255 0.386757 17.7698C-0.128919 14.5484 -0.128919 11.2754 0.386757 8.05397L0.64867 6.41781C0.747866 5.79813 1.32858 5.3388 2.01282 5.3388H3.81077ZM8.53058 1.7567C9.16652 1.60702 9.83349 1.60702 10.4694 1.7567C12.1899 2.16164 13.3926 3.58138 13.3926 5.20739V5.3388H5.60737V5.20738C5.60737 3.58137 6.81008 2.16164 8.53058 1.7567ZM3.81077 6.98324V9.4499C3.81077 9.904 4.21296 10.2721 4.70907 10.2721C5.20519 10.2721 5.60737 9.904 5.60737 9.4499V6.98324H13.3926V9.4499C13.3926 9.904 13.7948 10.2721 14.2909 10.2721C14.7871 10.2721 15.1892 9.904 15.1892 9.4499V6.98324H16.6261L16.8356 8.29237C17.326 11.3557 17.326 14.4681 16.8356 17.5314C16.7057 18.3428 15.9909 18.9701 15.0997 19.0547L14.3465 19.1262C11.1241 19.432 7.87586 19.432 4.65349 19.1262L3.90027 19.0547C3.00911 18.9701 2.29426 18.3428 2.16438 17.5314C1.67401 14.4681 1.67401 11.3557 2.16438 8.29237L2.37394 6.98324H3.81077Z" fill="black"/>
</svg>
