<svg width="34" height="34" viewBox="0 0 34 34" fill="none" xmlns="http://www.w3.org/2000/svg">
<path fill-rule="evenodd" clip-rule="evenodd" d="M15.2909 7.42417C16.2675 8.50673 15.9578 9.73315 15.0943 10.8968C14.8896 11.1727 14.6536 11.4446 14.3686 11.7441C14.2318 11.8879 14.1251 11.996 13.902 12.2194C13.3953 12.7266 12.9693 13.1528 12.624 13.498C12.4566 13.6654 13.5997 15.9495 15.818 18.17C18.0351 20.3893 20.3191 21.5332 20.4873 21.3649L21.7644 20.0871C22.4676 19.3831 22.8401 19.0435 23.3519 18.7077C24.4158 18.0097 25.5763 17.82 26.555 18.6952C29.7507 20.9811 31.559 22.3838 32.445 23.3044C34.173 25.0998 33.9465 27.8636 32.4548 29.4403C31.9375 29.987 31.2816 30.6433 30.507 31.3901C25.8211 36.0786 15.9316 33.2253 8.35244 25.6387C0.771533 18.0503 -2.08018 8.15994 2.5959 3.48134C3.43539 2.62866 3.71218 2.35201 4.52977 1.5464C6.05198 0.0465168 8.94326 -0.188335 10.7009 1.54789C11.6254 2.46115 13.0993 4.35754 15.2909 7.42417ZM24.1203 22.4435L22.843 23.7216C20.6718 25.894 16.9743 24.0422 13.4618 20.5262C9.94683 17.0079 8.09715 13.3117 10.2691 11.1399C10.6138 10.7952 11.0394 10.3694 11.5458 9.86253C11.7501 9.65803 11.8435 9.5633 11.9557 9.44542C12.1085 9.28479 12.2341 9.14372 12.3346 9.01889C10.3924 6.31332 9.07203 4.62274 8.36025 3.91962C7.99266 3.5565 7.16956 3.62336 6.86739 3.9211C6.06147 4.7152 5.79656 4.97997 4.96045 5.82915C1.95327 8.838 4.25537 16.8222 10.7087 23.2819C17.16 29.7395 25.143 32.0427 28.173 29.0113C28.9356 28.2758 29.5571 27.654 30.0354 27.1484C30.3811 26.7831 30.4428 26.0293 30.0452 25.6162C29.383 24.9281 27.7617 23.664 24.9623 21.6537C24.7582 21.8179 24.5074 22.0561 24.1203 22.4435ZM30.3333 15.3331V11.9998H24.357L33.1785 3.17831L30.8214 0.821289L22 9.64278V3.66647H18.6666V15.3331H30.3333Z" fill="#A8DA90"/>
</svg>
