<svg width="238" height="47" viewBox="0 0 238 47" fill="none" xmlns="http://www.w3.org/2000/svg">
<path d="M116 45.9647L115.992 46.4646L116 45.9647ZM177 34.9733L176.826 34.5046L177 34.9733ZM238 1L232.243 1.43079L235.494 6.20146L238 1ZM58 34.9733L58.1803 34.507L58 34.9733ZM1 1C0.697938 1.39845 0.697946 1.39845 0.697956 1.39846C0.697963 1.39846 0.697976 1.39847 0.697989 1.39848C0.698017 1.3985 0.698054 1.39853 0.698102 1.39857C0.698197 1.39864 0.698333 1.39874 0.69851 1.39888C0.698864 1.39915 0.69938 1.39954 0.700059 1.40005C0.701417 1.40108 0.703425 1.4026 0.70608 1.40461C0.711388 1.40863 0.719282 1.4146 0.729732 1.42249C0.750631 1.43828 0.781756 1.46177 0.822875 1.49272C0.905112 1.55463 1.02733 1.64641 1.18767 1.76622C1.50835 2.00585 1.98154 2.35763 2.59246 2.80686L3.18488 2.00123C2.57613 1.55359 2.10499 1.20334 1.78626 0.965168C1.62689 0.84608 1.50562 0.755011 1.4243 0.693797C1.38365 0.663189 1.35298 0.640046 1.33253 0.624596C1.3223 0.616871 1.31463 0.611069 1.30954 0.607219C1.307 0.605294 1.3051 0.603858 1.30385 0.602912C1.30323 0.60244 1.30277 0.60209 1.30247 0.601863C1.30232 0.60175 1.30221 0.601668 1.30214 0.601616C1.30211 0.601591 1.30209 0.601573 1.30207 0.601562C1.30207 0.601557 1.30206 0.601555 1.30206 0.601553C1.30206 0.601553 1.30206 0.601555 1 1ZM6.45329 5.60248C7.60911 6.42776 8.91519 7.35063 10.3493 8.34899L10.9206 7.52829C9.49002 6.53236 8.1872 5.61178 7.03439 4.78865L6.45329 5.60248ZM14.2686 11.044C15.5249 11.8971 16.8456 12.7838 18.2206 13.6939L18.7725 12.86C17.4011 11.9522 16.0837 11.0678 14.8304 10.2167L14.2686 11.044ZM22.2076 16.2975C23.5137 17.1386 24.8553 17.9909 26.2253 18.8473L26.7554 17.9993C25.3894 17.1454 24.0516 16.2956 22.7491 15.4567L22.2076 16.2975ZM30.2781 21.3398C31.6256 22.1546 32.9926 22.967 34.373 23.771L34.8762 22.9068C33.5009 22.1058 32.1386 21.2963 30.7956 20.4841L30.2781 21.3398ZM38.5105 26.1301C39.9001 26.9049 41.2971 27.6655 42.6955 28.406L43.1635 27.5223C41.7719 26.7854 40.3813 26.0282 38.9975 25.2567L38.5105 26.1301ZM46.9359 30.5845C48.3761 31.3007 49.8117 31.9892 51.236 32.6434L51.6534 31.7346C50.2393 31.0851 48.813 30.4011 47.3811 29.6891L46.9359 30.5845ZM55.605 34.5531C56.3486 34.8606 57.0872 35.1565 57.8197 35.4397L58.1803 34.507C57.4554 34.2267 56.724 33.9337 55.9871 33.629L55.605 34.5531ZM57.8197 35.4397C58.6064 35.7439 59.3795 36.0399 60.1403 36.3282L60.4946 35.393C59.7361 35.1057 58.9651 34.8104 58.1803 34.507L57.8197 35.4397ZM64.7984 38.0485C66.4086 38.6261 67.968 39.1659 69.4894 39.6701L69.804 38.7209C68.2912 38.2195 66.7395 37.6825 65.136 37.1073L64.7984 38.0485ZM74.2279 41.1603C75.8503 41.6411 77.4427 42.0807 79.0233 42.4826L79.2697 41.5134C77.7025 41.115 76.1227 40.6788 74.512 40.2015L74.2279 41.1603ZM83.8707 43.6035C85.4886 43.94 87.1131 44.24 88.7636 44.507L88.9233 43.5198C87.2873 43.2552 85.6775 42.9579 84.0744 42.6245L83.8707 43.6035ZM93.6886 45.1979C95.2922 45.3901 96.9347 45.5567 98.6321 45.7005L98.7165 44.7041C97.0298 44.5611 95.3988 44.3957 93.8076 44.2051L93.6886 45.1979ZM103.589 46.0492C105.183 46.1403 106.832 46.2161 108.545 46.2784L108.581 45.2791C106.874 45.217 105.233 45.1415 103.646 45.0508L103.589 46.0492ZM113.51 46.4195C114.322 46.4367 115.15 46.4517 115.992 46.4646L116.008 45.4648C115.167 45.4519 114.342 45.4369 113.531 45.4197L113.51 46.4195ZM115.992 46.4646C116.878 46.4782 117.747 46.488 118.602 46.4937L118.609 45.4938C117.757 45.488 116.89 45.4783 116.008 45.4648L115.992 46.4646ZM123.823 46.4766C125.622 46.451 127.356 46.4042 129.035 46.3353L128.994 45.3361C127.324 45.4047 125.6 45.4512 123.808 45.4767L123.823 46.4766ZM134.25 46.0364C136.033 45.9032 137.761 45.7402 139.45 45.5458L139.336 44.5523C137.66 44.7452 135.946 44.907 134.176 45.0392L134.25 46.0364ZM144.627 44.8334C146.359 44.5548 148.066 44.2389 149.767 43.8839L149.563 42.905C147.877 43.2569 146.185 43.57 144.468 43.8461L144.627 44.8334ZM154.858 42.7034C156.519 42.2809 158.192 41.8198 159.895 41.3186L159.613 40.3593C157.921 40.8573 156.259 41.315 154.611 41.7343L154.858 42.7034ZM164.877 39.7707C166.48 39.2482 168.122 38.6919 169.815 38.1006L169.486 37.1566C167.798 37.7459 166.163 38.2999 164.567 38.8199L164.877 39.7707ZM174.725 36.3439C175.528 36.0505 176.344 35.75 177.174 35.4421L176.826 34.5046C175.998 34.8119 175.183 35.1119 174.382 35.4046L174.725 36.3439ZM177.174 35.4421C177.947 35.1553 178.728 34.8555 179.515 34.5437L179.147 33.6139C178.366 33.9232 177.592 34.2205 176.826 34.5046L177.174 35.4421ZM184.141 32.6132C185.647 31.9539 187.17 31.2599 188.702 30.5379L188.276 29.6333C186.752 30.3518 185.237 31.0419 183.74 31.697L184.141 32.6132ZM193.21 28.3471C194.696 27.6038 196.185 26.8403 197.667 26.0627L197.203 25.1771C195.726 25.9519 194.243 26.7124 192.762 27.4526L193.21 28.3471ZM202.082 23.6995C203.555 22.8951 205.017 22.0824 206.459 21.2674L205.967 20.3968C204.529 21.2096 203.072 22.0199 201.603 22.8218L202.082 23.6995ZM210.799 18.7768C212.265 17.9225 213.703 17.0725 215.104 16.2338L214.591 15.3757C213.193 16.2125 211.758 17.0605 210.295 17.9127L210.799 18.7768ZM219.386 13.6383C220.863 12.7317 222.284 11.8488 223.636 10.9993L223.104 10.1525C221.755 11.0002 220.337 11.8814 218.863 12.786L219.386 13.6383ZM227.862 8.31518C229.406 7.32306 230.814 6.40615 232.061 5.58631L231.512 4.75066C230.268 5.56872 228.862 6.48373 227.321 7.47383L227.862 8.31518ZM116 45.9647L115.985 46.9646L116 45.9647ZM177 34.9733L176.652 34.0358L177 34.9733ZM238 1L226.485 1.86157L232.989 11.4029L238 1ZM58 34.9733L58.3606 34.0406L58 34.9733ZM1 1C0.395877 1.79689 0.395889 1.7969 0.395905 1.79691C0.395913 1.79692 0.395931 1.79693 0.395948 1.79695C0.395982 1.79697 0.396027 1.797 0.396081 1.79705C0.39619 1.79713 0.39634 1.79724 0.39653 1.79739C0.396911 1.79768 0.397456 1.79809 0.398162 1.79862C0.399575 1.79969 0.401638 1.80126 0.404348 1.80331C0.409767 1.80741 0.417772 1.81346 0.428335 1.82144C0.449459 1.8374 0.480811 1.86106 0.52216 1.89219C0.604858 1.95444 0.727546 2.04658 0.888373 2.16675C1.21002 2.40711 1.68425 2.75965 2.29625 3.20968L3.48109 1.59841C2.87343 1.15157 2.40332 0.802091 2.08555 0.564639C1.92667 0.445914 1.80587 0.355201 1.72502 0.294334C1.68459 0.2639 1.65415 0.240928 1.63392 0.225647C1.62381 0.218007 1.61625 0.21229 1.61127 0.208524C1.60879 0.206641 1.60694 0.205246 1.60575 0.204342C1.60515 0.20389 1.60472 0.203561 1.60445 0.203356C1.60431 0.203253 1.60422 0.203181 1.60416 0.20314C1.60414 0.203119 1.60412 0.203106 1.60411 0.203101C1.60411 0.203099 1.60411 0.203101 1.60411 0.203099C1.60412 0.203103 1.60412 0.203109 1 1ZM6.16274 6.0094C7.32006 6.83575 8.62777 7.75977 10.0636 8.75934L11.2063 7.11793C9.77744 6.12322 8.47625 5.20379 7.32493 4.38173L6.16274 6.0094ZM13.9877 11.4576C15.2456 12.3118 16.5679 13.1996 17.9446 14.1108L19.0485 12.4431C17.6788 11.5364 16.363 10.6531 15.1113 9.80309L13.9877 11.4576ZM21.9369 16.7178C23.2447 17.5601 24.5882 18.4136 25.9603 19.2713L27.0204 17.5753C25.6564 16.7227 24.3205 15.874 23.0198 15.0364L21.9369 16.7178ZM30.0194 21.7677C31.369 22.5838 32.7384 23.3976 34.1213 24.203L35.1278 22.4747C33.755 21.6753 32.3952 20.8671 31.0543 20.0563L30.0194 21.7677ZM38.267 26.5668C39.6595 27.3432 41.0597 28.1056 42.4615 28.8479L43.3975 27.0804C42.0093 26.3453 40.6218 25.5899 39.241 24.82L38.267 26.5668ZM46.7132 31.0322C48.1577 31.7505 49.5979 32.4412 51.0273 33.0977L51.8621 31.2803C50.453 30.6331 49.0314 29.9513 47.6037 29.2414L46.7132 31.0322ZM55.4139 35.0152C56.1609 35.3241 56.903 35.6213 57.6394 35.906L58.3606 34.0406C57.6395 33.7618 56.9117 33.4703 56.1782 33.167L55.4139 35.0152ZM57.6394 35.906C58.427 36.2106 59.2013 36.5071 59.9631 36.7957L60.6717 34.9255C59.9144 34.6385 59.1444 34.3437 58.3606 34.0406L57.6394 35.906ZM64.6296 38.5192C66.2432 39.098 67.8064 39.6391 69.3321 40.1448L69.9613 38.2463C68.4527 37.7463 66.905 37.2106 65.3049 36.6366L64.6296 38.5192ZM74.0859 41.6397C75.7141 42.1222 77.3128 42.5636 78.9001 42.9672L79.3929 41.0288C77.8324 40.6321 76.2589 40.1977 74.6541 39.7221L74.0859 41.6397ZM83.7689 44.0931C85.3942 44.4311 87.026 44.7324 88.6838 45.0006L89.0032 43.0262C87.3744 42.7627 85.772 42.4668 84.1762 42.135L83.7689 44.0931ZM93.6291 45.6944C95.2388 45.8873 96.8872 46.0544 98.5899 46.1987L98.7588 44.2059C97.0774 44.0634 95.4521 43.8986 93.8671 43.7086L93.6291 45.6944ZM103.56 46.5484C105.159 46.6397 106.811 46.7156 108.527 46.7781L108.6 44.7794C106.896 44.7174 105.258 44.6421 103.674 44.5516L103.56 46.5484ZM113.499 46.9193C114.313 46.9366 115.141 46.9516 115.985 46.9646L116.015 44.9648C115.175 44.9519 114.351 44.937 113.542 44.9198L113.499 46.9193ZM115.985 46.9646C116.872 46.9782 117.743 46.9879 118.599 46.9937L118.612 44.9938C117.762 44.988 116.897 44.9784 116.015 44.9648L115.985 46.9646ZM123.83 46.9765C125.633 46.9509 127.371 46.904 129.056 46.8348L128.974 44.8365C127.309 44.9049 125.588 44.9513 123.801 44.9767L123.83 46.9765ZM134.288 46.535C136.076 46.4014 137.811 46.2377 139.507 46.0425L139.279 44.0556C137.61 44.2476 135.902 44.4088 134.139 44.5406L134.288 46.535ZM144.706 45.3271C146.446 45.0473 148.161 44.7299 149.869 44.3734L149.461 42.4156C147.782 42.7659 146.098 43.0776 144.389 43.3524L144.706 45.3271ZM154.981 43.188C156.649 42.7638 158.328 42.301 160.037 41.7983L159.472 39.8796C157.785 40.376 156.13 40.8321 154.488 41.2497L154.981 43.188ZM165.032 40.2461C166.639 39.7224 168.284 39.165 169.98 38.5727L169.321 36.6845C167.636 37.2729 166.004 37.8258 164.412 38.3445L165.032 40.2461ZM174.897 36.8136C175.701 36.5199 176.517 36.219 177.348 35.9109L176.652 34.0358C175.825 34.3429 175.011 34.6425 174.21 34.935L174.897 36.8136ZM177.348 35.9109C178.124 35.6228 178.909 35.3217 179.699 35.0086L178.963 33.149C178.185 33.4571 177.414 33.753 176.652 34.0358L177.348 35.9109ZM184.341 33.0712C185.852 32.41 187.38 31.714 188.915 30.9901L188.062 29.1811C186.542 29.8977 185.032 30.5858 183.539 31.2389L184.341 33.0712ZM193.433 28.7943C194.923 28.0494 196.414 27.2845 197.9 26.5055L196.971 24.7343C195.496 25.5077 194.016 26.2667 192.539 27.0054L193.433 28.7943ZM202.321 24.1384C203.797 23.3328 205.261 22.5189 206.705 21.7028L205.721 19.9615C204.285 20.7731 202.83 21.5823 201.363 22.3829L202.321 24.1384ZM211.05 19.2088C212.519 18.3535 213.958 17.5024 215.361 16.6628L214.334 14.9467C212.938 15.7825 211.505 16.6295 210.044 17.4806L211.05 19.2088ZM219.648 14.0644C221.127 13.1569 222.548 12.273 223.902 11.4227L222.838 9.72907C221.49 10.5759 220.074 11.4562 218.602 12.3598L219.648 14.0644ZM228.132 8.73585C229.678 7.74272 231.087 6.82486 232.336 6.00413L231.238 4.33283C229.994 5.15 228.59 6.06406 227.051 7.05316L228.132 8.73585Z" fill="#D9D9D9"/>
</svg>
