<svg width="309" height="51" viewBox="0 0 309 51" fill="none" xmlns="http://www.w3.org/2000/svg">
<path d="M150 49.9618L149.994 50.4617L150 49.9618ZM229 37.9711L229.148 38.4486L229 37.9711ZM309 1L303.227 0.938445L306.06 5.96894L309 1ZM74 37.9711L74.1541 37.4955L74 37.9711ZM1 1C0.727078 1.41894 0.727086 1.41895 0.727097 1.41896C0.727105 1.41896 0.727118 1.41897 0.727133 1.41898C0.727163 1.419 0.727204 1.41903 0.727257 1.41906C0.727363 1.41913 0.727514 1.41923 0.727711 1.41936C0.728106 1.41961 0.728684 1.41999 0.729446 1.42049C0.730969 1.42148 0.733224 1.42294 0.736208 1.42488C0.742175 1.42877 0.751057 1.43454 0.762824 1.44218C0.786357 1.45746 0.821427 1.4802 0.867792 1.51019C0.960524 1.57018 1.09844 1.65919 1.2796 1.77554C1.64194 2.00823 2.17728 2.3503 2.87017 2.78832L3.40451 1.94305C2.71373 1.50636 2.1804 1.16559 1.81998 0.934116C1.63977 0.818382 1.50279 0.729975 1.41097 0.670573C1.36506 0.640872 1.33044 0.618422 1.30735 0.603433C1.29581 0.595938 1.28714 0.590309 1.2814 0.586571C1.27852 0.584702 1.27638 0.583305 1.27496 0.582385C1.27426 0.581925 1.27373 0.581584 1.27339 0.581362C1.27322 0.581252 1.2731 0.581171 1.27302 0.58112C1.27298 0.581094 1.27295 0.581076 1.27294 0.581066C1.27293 0.58106 1.27292 0.581058 1.27292 0.581055C1.27292 0.581055 1.27292 0.581056 1 1ZM7.23473 5.5065C8.5345 6.30512 10.0048 7.1996 11.6233 8.17054L12.1377 7.31301C10.5225 6.344 9.05518 5.45137 7.75824 4.65448L7.23473 5.5065ZM16.0363 10.7875C17.4463 11.6141 18.9312 12.4755 20.4811 13.3631L20.978 12.4954C19.4312 11.6095 17.9493 10.7498 16.542 9.92485L16.0363 10.7875ZM24.952 15.8929C26.407 16.7061 27.9049 17.5334 29.439 18.369L29.9174 17.4908C28.3866 16.6571 26.8919 15.8315 25.4399 15.02L24.952 15.8929ZM33.9651 20.8005C35.4572 21.5908 36.9754 22.3836 38.5143 23.1741L38.9712 22.2846C37.4362 21.4961 35.9218 20.7053 34.4332 19.9168L33.9651 20.8005ZM43.0984 25.4899C44.6239 26.2474 46.164 26.9984 47.7137 27.7388L48.1448 26.8365C46.5999 26.0984 45.0644 25.3496 43.5431 24.5943L43.0984 25.4899ZM52.3664 29.9146C53.9273 30.6282 55.493 31.327 57.0585 32.0068L57.4568 31.0895C55.8975 30.4124 54.3376 29.7162 52.7822 29.0051L52.3664 29.9146ZM61.792 34.0019C63.394 34.6559 64.9907 35.2855 66.5771 35.8859L66.9311 34.9506C65.3533 34.3535 63.7646 33.7271 62.17 33.0761L61.792 34.0019ZM71.4118 37.6339C72.2277 37.9143 73.0393 38.1855 73.8459 38.4468L74.1541 37.4955C73.3534 37.2361 72.5474 36.9668 71.7369 36.6882L71.4118 37.6339ZM73.8459 38.4468C74.6244 38.699 75.3932 38.9461 76.1528 39.1883L76.4565 38.2355C75.6985 37.9939 74.9312 37.7472 74.1541 37.4955L73.8459 38.4468ZM80.7739 40.6333C82.3549 41.1174 83.8986 41.5786 85.4115 42.0181L85.6905 41.0578C84.1825 40.6198 82.6435 40.1599 81.0667 39.6771L80.7739 40.6333ZM90.0713 43.3284C91.6589 43.7591 93.2179 44.1652 94.7568 44.5479L94.9982 43.5774C93.4665 43.1965 91.9143 42.7923 90.3332 42.3633L90.0713 43.3284ZM99.4701 45.6604C101.061 46.015 102.638 46.3451 104.213 46.6522L104.405 45.6707C102.839 45.3654 101.27 45.0371 99.6877 44.6844L99.4701 45.6604ZM108.982 47.5132C110.569 47.7767 112.162 48.0186 113.773 48.2404L113.909 47.2497C112.308 47.0292 110.723 46.7887 109.146 46.5268L108.982 47.5132ZM118.581 48.8379C120.161 49.0136 121.765 49.1724 123.403 49.3158L123.49 48.3196C121.86 48.1769 120.263 48.0188 118.692 47.844L118.581 48.8379ZM128.232 49.688C129.805 49.7937 131.414 49.8874 133.064 49.9702L133.114 48.9715C131.469 48.8889 129.866 48.7955 128.299 48.6902L128.232 49.688ZM137.896 50.1781C139.465 50.2352 141.074 50.2842 142.728 50.326L142.754 49.3263C141.103 49.2846 139.497 49.2357 137.932 49.1788L137.896 50.1781ZM147.568 50.4262C148.366 50.4394 149.174 50.4512 149.994 50.4617L150.006 49.4618C149.188 49.4513 148.381 49.4395 147.584 49.4264L147.568 50.4262ZM149.994 50.4617C150.845 50.4727 151.686 50.4813 152.515 50.4876L152.523 49.4876C151.695 49.4814 150.857 49.4728 150.006 49.4618L149.994 50.4617ZM157.547 50.4958C159.267 50.4877 160.941 50.4678 162.572 50.4359L162.553 49.4361C160.926 49.4679 159.258 49.4877 157.542 49.4958L157.547 50.4958ZM167.597 50.2941C169.314 50.2299 170.987 50.1503 172.622 50.0547L172.564 49.0564C170.936 49.1516 169.27 49.2309 167.56 49.2948L167.597 50.2941ZM177.645 49.7014C179.347 49.5604 181.015 49.3999 182.657 49.219L182.548 48.225C180.915 48.4049 179.256 48.5646 177.562 48.7048L177.645 49.7014ZM187.654 48.5958C189.326 48.3624 190.981 48.106 192.63 47.8258L192.463 46.84C190.824 47.1185 189.178 47.3734 187.516 47.6054L187.654 48.5958ZM197.582 46.9105C199.215 46.5845 200.852 46.2345 202.505 45.8595L202.283 44.8843C200.639 45.2574 199.01 45.6057 197.386 45.9298L197.582 46.9105ZM207.397 44.689C208.994 44.2883 210.613 43.8648 212.264 43.4179L212.002 42.4526C210.357 42.8981 208.744 43.3201 207.154 43.719L207.397 44.689ZM217.106 42.0662C218.679 41.6153 220.285 41.1443 221.931 40.6525L221.645 39.6944C220.002 40.1852 218.399 40.6552 216.831 41.1049L217.106 42.0662ZM226.744 39.1923C227.535 38.9489 228.337 38.701 229.148 38.4486L228.852 37.4937C228.041 37.7458 227.24 37.9934 226.45 38.2365L226.744 39.1923ZM229.148 38.4486C229.92 38.2087 230.698 37.9604 231.483 37.7042L231.172 36.7536C230.392 37.0084 229.618 37.2553 228.852 37.4937L229.148 38.4486ZM236.139 36.1164C237.662 35.5768 239.201 35.0124 240.751 34.4268L240.398 33.4913C238.854 34.0747 237.321 34.6367 235.805 35.1738L236.139 36.1164ZM245.336 32.6479C246.847 32.0466 248.365 31.4287 249.885 30.7973L249.501 29.8738C247.986 30.5034 246.473 31.1194 244.966 31.7188L245.336 32.6479ZM254.407 28.8822C255.91 28.2343 257.411 27.5762 258.905 26.9109L258.498 25.9974C257.008 26.6612 255.51 27.3177 254.012 27.964L254.407 28.8822ZM263.381 24.8891C264.878 24.2033 266.365 23.5131 267.836 22.8218L267.411 21.9167C265.942 22.6068 264.458 23.2955 262.964 23.9799L263.381 24.8891ZM272.266 20.716C273.762 19.9967 275.237 19.2795 276.686 18.568L276.245 17.6704C274.798 18.3807 273.326 19.0967 271.832 19.8147L272.266 20.716ZM281.083 16.3875C282.581 15.637 284.044 14.8973 285.464 14.1728L285.01 13.282C283.592 14.0054 282.131 14.744 280.635 15.4933L281.083 16.3875ZM289.825 11.9287C291.345 11.1398 292.801 10.3772 294.182 9.64762L293.716 8.76333C292.336 9.49191 290.882 10.2534 289.365 11.0412L289.825 11.9287ZM298.517 7.33935C300.107 6.48543 301.551 5.70177 302.828 5.0037L302.348 4.1263C301.073 4.82323 299.631 5.60571 298.044 6.45838L298.517 7.33935ZM150 49.9618L149.987 50.9617L150 49.9618ZM229 37.9711L229.297 38.9261L229 37.9711ZM309 1L297.454 0.876889L303.12 10.9379L309 1ZM74 37.9711L74.3082 37.0198L74 37.9711ZM1 1C0.454157 1.83789 0.45417 1.8379 0.454186 1.83791C0.454195 1.83791 0.454214 1.83792 0.454232 1.83794C0.454268 1.83796 0.454316 1.83799 0.454376 1.83803C0.454495 1.83811 0.45466 1.83822 0.454871 1.83835C0.455293 1.83863 0.455899 1.83902 0.456687 1.83953C0.458265 1.84056 0.460575 1.84206 0.463613 1.84404C0.469691 1.84799 0.478683 1.85384 0.490561 1.86155C0.514316 1.87697 0.549611 1.89986 0.596204 1.93C0.689391 1.99029 0.827772 2.07959 1.00942 2.19625C1.3727 2.42956 1.90905 2.77226 2.603 3.21095L3.67169 1.52042C2.98196 1.0844 2.44964 0.744262 2.09017 0.513405C1.91044 0.397977 1.77392 0.309872 1.68256 0.250764C1.63687 0.22121 1.60248 0.198906 1.57961 0.184061C1.56818 0.176638 1.55963 0.171081 1.55399 0.167414C1.55117 0.165581 1.54908 0.16422 1.54772 0.163335C1.54704 0.162893 1.54654 0.16257 1.54623 0.162366C1.54608 0.162264 1.54596 0.162192 1.5459 0.16215C1.54587 0.162128 1.54585 0.162115 1.54584 0.162109C1.54583 0.162106 1.54583 0.162107 1.54583 0.162105C1.54584 0.162108 1.54584 0.162113 1 1ZM6.97298 5.93251C8.27415 6.732 9.74599 7.6274 11.3661 8.59931L12.395 6.88425C10.7813 5.91621 9.31552 5.02449 8.02 4.22847L6.97298 5.93251ZM15.7834 11.2189C17.1948 12.0463 18.6812 12.9085 20.2326 13.797L21.2265 12.0615C19.6813 11.1765 18.2008 10.3177 16.7949 9.49351L15.7834 11.2189ZM24.708 16.3293C26.1646 17.1434 27.6641 17.9716 29.1999 18.8081L30.1565 17.0517C28.6274 16.2189 27.1343 15.3942 25.6838 14.5835L24.708 16.3293ZM33.7311 21.2424C35.2249 22.0336 36.745 22.8273 38.2858 23.6188L39.1997 21.8398C37.6667 21.0523 36.154 20.2625 34.6672 19.475L33.7311 21.2424ZM42.876 25.9378C44.4037 26.6963 45.9461 27.4484 47.4982 28.19L48.3604 26.3854C46.8179 25.6484 45.2846 24.9007 43.7654 24.1464L42.876 25.9378ZM52.1585 30.3693C53.7221 31.0842 55.2907 31.7843 56.8594 32.4654L57.656 30.6309C56.0997 29.9551 54.5428 29.2603 52.9901 28.5504L52.1585 30.3693ZM61.603 34.4648C63.2086 35.1204 64.8094 35.7515 66.4001 36.3535L67.1081 34.483C65.5346 33.8875 63.9499 33.2627 62.359 32.6132L61.603 34.4648ZM71.2493 38.1067C72.0679 38.3881 72.8823 38.6602 73.6918 38.9225L74.3082 37.0198C73.5104 36.7614 72.7073 36.493 71.8994 36.2153L71.2493 38.1067ZM73.6918 38.9225C74.471 39.1749 75.2406 39.4223 76.001 39.6646L76.6084 37.7591C75.8511 37.5177 75.0846 37.2713 74.3082 37.0198L73.6918 38.9225ZM80.6275 41.1114C82.2106 41.5961 83.7566 42.0581 85.272 42.4983L85.8299 40.5776C84.3245 40.1404 82.7878 39.6812 81.2131 39.199L80.6275 41.1114ZM89.9404 43.8109C91.5311 44.2425 93.0936 44.6495 94.6362 45.0331L95.1189 43.0922C93.5908 42.7122 92.042 42.3088 90.4641 41.8807L89.9404 43.8109ZM99.3613 46.1484C100.956 46.504 102.538 46.835 104.118 47.143L104.5 45.18C102.939 44.8755 101.374 44.5481 99.7965 44.1964L99.3613 46.1484ZM108.9 48.0065C110.491 48.2707 112.089 48.5133 113.705 48.7357L113.977 46.7544C112.38 46.5345 110.801 46.2947 109.228 46.0335L108.9 48.0065ZM118.526 49.3348C120.11 49.511 121.718 49.6702 123.359 49.8139L123.534 47.8215C121.907 47.6791 120.315 47.5214 118.747 47.3471L118.526 49.3348ZM128.199 50.1869C129.775 50.2927 131.386 50.3866 133.039 50.4696L133.139 48.4721C131.497 48.3896 129.897 48.2964 128.333 48.1914L128.199 50.1869ZM137.877 50.6778C139.449 50.7349 141.06 50.784 142.716 50.8258L142.766 48.8265C141.117 48.7848 139.514 48.736 137.95 48.6791L137.877 50.6778ZM147.56 50.9262C148.358 50.9393 149.167 50.9512 149.987 50.9617L150.013 48.9619C149.195 48.9514 148.389 48.9396 147.593 48.9264L147.56 50.9262ZM149.987 50.9617C150.84 50.9727 151.681 50.9813 152.511 50.9876L152.526 48.9876C151.7 48.9814 150.862 48.9728 150.013 48.9619L149.987 50.9617ZM157.549 50.9958C159.272 50.9876 160.948 50.9678 162.582 50.9358L162.543 48.9362C160.919 48.968 159.253 48.9877 157.54 48.9958L157.549 50.9958ZM167.616 50.7938C169.336 50.7295 171.012 50.6497 172.652 50.5539L172.535 48.5573C170.91 48.6522 169.248 48.7314 167.541 48.7952L167.616 50.7938ZM177.686 50.1997C179.393 50.0584 181.065 49.8974 182.712 49.716L182.493 47.728C180.865 47.9074 179.21 48.0666 177.521 48.2065L177.686 50.1997ZM187.723 49.091C189.401 48.8569 191.06 48.5997 192.714 48.3188L192.379 46.347C190.745 46.6247 189.104 46.8788 187.447 47.1102L187.723 49.091ZM197.68 47.4008C199.317 47.074 200.959 46.723 202.615 46.3471L202.173 44.3967C200.533 44.7689 198.908 45.1162 197.288 45.4395L197.68 47.4008ZM207.519 45.174C209.119 44.7725 210.741 44.3482 212.394 43.9005L211.871 41.97C210.229 42.4148 208.619 42.8359 207.032 43.2341L207.519 45.174ZM217.244 42.5468C218.819 42.0954 220.426 41.6238 222.074 41.1316L221.501 39.2153C219.86 39.7057 218.26 40.1751 216.693 40.6243L217.244 42.5468ZM226.891 39.6703C227.683 39.4266 228.485 39.1786 229.297 38.9261L228.703 37.0162C227.893 37.2682 227.093 37.5156 226.303 37.7586L226.891 39.6703ZM229.297 38.9261C230.071 38.6854 230.851 38.4364 231.638 38.1795L231.017 36.2784C230.239 36.5324 229.468 36.7786 228.703 37.0162L229.297 38.9261ZM236.306 36.5876C237.833 36.0468 239.375 35.4813 240.928 34.8946L240.221 33.0236C238.68 33.6058 237.151 34.1666 235.638 34.7025L236.306 36.5876ZM245.521 33.1125C247.035 32.5102 248.555 31.8913 250.077 31.259L249.309 29.4121C247.796 30.0408 246.285 30.6558 244.781 31.2542L245.521 33.1125ZM254.605 29.3414C256.11 28.6927 257.613 28.0337 259.109 27.3677L258.295 25.5406C256.806 26.2036 255.311 26.8594 253.814 27.5048L254.605 29.3414ZM263.589 25.3437C265.088 24.6572 266.576 23.9663 268.048 23.2744L267.198 21.4642C265.731 22.1536 264.249 22.8417 262.756 23.5254L263.589 25.3437ZM272.482 21.1666C273.98 20.4467 275.456 19.7289 276.906 19.0168L276.025 17.2216C274.579 17.9313 273.108 18.6467 271.616 19.3641L272.482 21.1666ZM281.306 16.8346C282.806 16.0835 284.27 15.3432 285.692 14.6182L284.783 12.8366C283.366 13.5594 281.906 14.2975 280.411 15.0463L281.306 16.8346ZM290.056 12.3725C291.577 11.5831 293.033 10.8199 294.416 10.0898L293.482 8.32118C292.103 9.04924 290.651 9.81021 289.134 10.5974L290.056 12.3725ZM298.754 7.77984C300.345 6.92529 301.79 6.14103 303.067 5.44241L302.108 3.68759C300.834 4.38397 299.394 5.16584 297.807 6.01789L298.754 7.77984Z" fill="#D9D9D9"/>
</svg>
