<svg width="310" height="47" viewBox="0 0 310 47" fill="none" xmlns="http://www.w3.org/2000/svg">
<path d="M150 1.03529L149.994 0.535328L150 1.03529ZM230 12.0267L230.137 11.5458L230 12.0267ZM310 46L304.232 46.26L306.891 41.1351L310 46ZM75 12.0267L75.1422 12.506L75 12.0267ZM1 46C0.747245 45.5686 0.747252 45.5686 0.747263 45.5686C0.747271 45.5686 0.747284 45.5686 0.747299 45.5686C0.747329 45.5685 0.747371 45.5685 0.747424 45.5685C0.747532 45.5684 0.747686 45.5683 0.747887 45.5682C0.748289 45.568 0.748879 45.5676 0.749657 45.5672C0.751212 45.5663 0.753517 45.5649 0.756568 45.5631C0.76267 45.5596 0.771757 45.5543 0.783796 45.5472C0.807875 45.5332 0.843764 45.5122 0.891214 45.4846C0.986114 45.4294 1.12726 45.3474 1.31264 45.2403C1.6834 45.0261 2.23112 44.7111 2.93976 44.3078L3.43438 45.1769C2.72774 45.5791 2.18192 45.8929 1.81297 46.1061C1.62849 46.2127 1.48824 46.2942 1.3942 46.3489C1.34718 46.3763 1.31172 46.397 1.28806 46.4108C1.27623 46.4177 1.26735 46.4229 1.26146 46.4263C1.25851 46.428 1.25631 46.4293 1.25486 46.4302C1.25413 46.4306 1.25359 46.4309 1.25324 46.4311C1.25307 46.4312 1.25294 46.4313 1.25286 46.4314C1.25282 46.4314 1.25279 46.4314 1.25277 46.4314C1.25276 46.4314 1.25276 46.4314 1.25275 46.4314C1.25275 46.4314 1.25276 46.4314 1 46ZM7.40049 41.8056C8.72764 41.0707 10.2283 40.2478 11.8793 39.3546L12.3551 40.2342C10.7072 41.1257 9.20936 41.9471 7.88488 42.6804L7.40049 41.8056ZM16.379 36.9473C17.8158 36.1872 19.3284 35.3951 20.9064 34.5789L21.3658 35.4672C19.7906 36.2818 18.2809 37.0725 16.8466 37.8312L16.379 36.9473ZM25.4566 32.2529C26.9362 31.5055 28.4587 30.7452 30.0174 29.9774L30.4593 30.8744C28.9038 31.6407 27.3842 32.3995 25.9074 33.1455L25.4566 32.2529ZM34.6132 27.7434C36.1275 27.0174 37.6675 26.2892 39.2278 25.5631L39.6497 26.4697C38.0931 27.1941 36.5565 27.9207 35.0455 28.6451L34.6132 27.7434ZM43.8721 23.4365C45.4167 22.7411 46.9752 22.0515 48.5425 21.3718L48.9404 22.2892C47.3775 22.967 45.8233 23.6547 44.2826 24.3483L43.8721 23.4365ZM53.2445 19.3748C54.8207 18.72 56.4007 18.0788 57.9795 17.455L58.347 18.3851C56.7739 19.0065 55.1993 19.6456 53.6281 20.2983L53.2445 19.3748ZM62.7492 15.6246C64.362 15.0246 65.9683 14.4471 67.5626 13.8964L67.8891 14.8416C66.3027 15.3896 64.7038 15.9644 63.0978 16.5618L62.7492 15.6246ZM72.4174 12.293C73.2359 12.0357 74.0496 11.787 74.8578 11.5473L75.1422 12.506C74.3393 12.7441 73.5308 12.9913 72.7172 13.247L72.4174 12.293ZM74.8578 11.5473C75.631 11.318 76.3937 11.0933 77.1465 10.8731L77.4272 11.8329C76.6757 12.0527 75.9142 12.2771 75.1422 12.506L74.8578 11.5473ZM81.727 9.55554C83.2964 9.11242 84.8248 8.69016 86.3193 8.28782L86.5792 9.25344C85.0891 9.65461 83.5646 10.0758 81.9988 10.5179L81.727 9.55554ZM90.9292 7.08368C92.5019 6.68639 94.0426 6.31199 95.5604 5.95926L95.7868 6.9333C94.2756 7.28449 92.7411 7.65738 91.1741 8.05322L90.9292 7.08368ZM100.215 4.93124C101.787 4.60302 103.343 4.29779 104.896 4.01408L105.076 4.9978C103.532 5.27995 101.983 5.58355 100.419 5.91012L100.215 4.93124ZM109.6 3.21889C111.163 2.97604 112.734 2.75341 114.323 2.54949L114.45 3.54136C112.87 3.74416 111.308 3.96556 109.754 4.20704L109.6 3.21889ZM119.062 2.00204C120.616 1.84182 122.197 1.69715 123.813 1.56671L123.894 2.56347C122.284 2.69334 120.711 2.83735 119.165 2.99677L119.062 2.00204ZM128.569 1.22979C130.115 1.13459 131.699 1.0502 133.328 0.97562L133.374 1.97457C131.75 2.04893 130.171 2.13305 128.631 2.22791L128.569 1.22979ZM138.084 0.789272C139.626 0.738304 141.21 0.694458 142.841 0.657017L142.863 1.65675C141.236 1.69412 139.655 1.73788 138.117 1.78873L138.084 0.789272ZM147.605 0.567272C148.39 0.555458 149.187 0.544834 149.994 0.535328L150.006 1.53526C149.199 1.54475 148.404 1.55536 147.62 1.56716L147.605 0.567272ZM149.994 0.535328C150.853 0.525215 151.702 0.517242 152.539 0.511452L152.546 1.51143C151.71 1.51721 150.864 1.52516 150.006 1.53526L149.994 0.535328ZM157.619 0.503887C159.354 0.511337 161.043 0.52953 162.692 0.558846L162.675 1.55869C161.03 1.52946 159.345 1.51131 157.614 1.50388L157.619 0.503887ZM167.765 0.68869C169.497 0.74733 171.186 0.820011 172.839 0.907249L172.786 1.90586C171.14 1.81897 169.457 1.74656 167.732 1.68812L167.765 0.68869ZM177.91 1.22886C179.629 1.35693 181.314 1.50272 182.974 1.66689L182.876 2.66204C181.224 2.49869 179.547 2.35358 177.836 2.22609L177.91 1.22886ZM188.025 2.23191C189.717 2.44352 191.392 2.6759 193.059 2.92977L192.909 3.91838C191.25 3.66584 189.584 3.43468 187.901 3.22417L188.025 2.23191ZM198.074 3.76025C199.731 4.05667 201.391 4.37511 203.065 4.71627L202.865 5.69612C201.199 5.35649 199.546 5.03958 197.898 4.74463L198.074 3.76025ZM208.03 5.78458C209.654 6.15154 211.298 6.5396 212.972 6.94939L212.734 7.92071C211.066 7.51221 209.427 7.12552 207.81 6.75999L208.03 5.78458ZM217.893 8.19331C219.494 8.60969 221.127 9.04499 222.798 9.49969L222.536 10.4646C220.868 10.0108 219.238 9.57644 217.642 9.16111L217.893 8.19331ZM227.692 10.8542C228.497 11.0805 229.312 11.311 230.137 11.5458L229.863 12.5076C229.039 12.2731 228.225 12.0429 227.421 11.8169L227.692 10.8542ZM230.137 11.5458C230.904 11.764 231.677 11.9898 232.456 12.2227L232.169 13.1808C231.394 12.9491 230.625 12.7245 229.863 12.5076L230.137 11.5458ZM237.087 13.6683C238.603 14.1602 240.135 14.6747 241.678 15.2085L241.351 16.1536C239.813 15.6217 238.288 15.1093 236.778 14.6195L237.087 13.6683ZM246.246 16.8324C247.754 17.3822 249.268 17.9472 250.784 18.5246L250.428 19.4591C248.916 18.8833 247.406 18.3199 245.903 17.7719L246.246 16.8324ZM255.298 20.2775C256.799 20.8711 258.298 21.4742 259.79 22.084L259.412 23.0097C257.923 22.4013 256.428 21.7996 254.93 21.2074L255.298 20.2775ZM264.263 23.9384C265.761 24.5681 267.248 25.2019 268.719 25.8368L268.323 26.755C266.854 26.1212 265.37 25.4887 263.876 24.8603L264.263 23.9384ZM273.152 27.7725C274.65 28.4338 276.126 29.0931 277.576 29.7474L277.164 30.6589C275.717 30.0057 274.243 29.3474 272.748 28.6873L273.152 27.7725ZM281.981 31.7553C283.482 32.4462 284.946 33.1273 286.369 33.7945L285.944 34.6999C284.524 34.0337 283.061 33.3536 281.562 32.6637L281.981 31.7553ZM290.743 35.8645C292.267 36.5919 293.726 37.2952 295.111 37.9682L294.674 38.8676C293.291 38.1956 291.834 37.4933 290.312 36.7669L290.743 35.8645ZM299.459 40.0988C301.055 40.8877 302.505 41.6119 303.786 42.2571L303.337 43.1503C302.057 42.5061 300.61 41.7831 299.016 40.9953L299.459 40.0988ZM150 1.03529L149.988 0.0353622L150 1.03529ZM230 12.0267L230.274 11.0649L230 12.0267ZM310 46L298.465 46.52L303.782 36.2702L310 46ZM75 12.0267L75.2843 12.9854L75 12.0267ZM1 46C0.494489 45.1372 0.494502 45.1372 0.494517 45.1372C0.494527 45.1372 0.494545 45.1371 0.494563 45.1371C0.4946 45.1371 0.494648 45.1371 0.494708 45.1371C0.494828 45.137 0.494995 45.1369 0.495209 45.1368C0.495637 45.1365 0.496252 45.1361 0.497056 45.1357C0.498663 45.1347 0.50102 45.1334 0.504123 45.1315C0.51033 45.1279 0.519521 45.1225 0.531665 45.1154C0.555954 45.1013 0.592057 45.0802 0.639723 45.0525C0.735054 44.997 0.876639 44.9148 1.06247 44.8074C1.43414 44.5926 1.98281 44.2771 2.69245 43.8733L3.68169 45.6115C2.97605 46.0131 2.43119 46.3264 2.06314 46.5391C1.87911 46.6454 1.7393 46.7266 1.64569 46.7811C1.59889 46.8083 1.56364 46.8289 1.54019 46.8425C1.52847 46.8494 1.51969 46.8545 1.5139 46.8579C1.51101 46.8596 1.50886 46.8609 1.50746 46.8617C1.50676 46.8621 1.50625 46.8624 1.50592 46.8626C1.50576 46.8627 1.50564 46.8627 1.50557 46.8628C1.50554 46.8628 1.50552 46.8628 1.50551 46.8628C1.5055 46.8628 1.5055 46.8628 1.5055 46.8628C1.5055 46.8628 1.50551 46.8628 1 46ZM7.1583 41.3681C8.48678 40.6326 9.98886 39.8089 11.6414 38.9149L12.593 40.6739C10.9466 41.5647 9.45022 42.3852 8.12707 43.1178L7.1583 41.3681ZM16.1452 36.5054C17.5833 35.7445 19.0972 34.9517 20.6767 34.1348L21.5954 35.9113C20.0218 36.7252 18.5134 37.5151 17.0805 38.2732L16.1452 36.5054ZM25.2311 31.8066C26.7122 31.0585 28.2362 30.2975 29.7964 29.5289L30.6803 31.323C29.1263 32.0885 27.6082 32.8465 26.1329 33.5918L25.2311 31.8066ZM34.397 27.2926C35.9129 26.5658 37.4547 25.8367 39.0168 25.1098L39.8607 26.923C38.3059 27.6466 36.771 28.3723 35.2616 29.096L34.397 27.2926ZM43.6668 22.9805C45.2134 22.2842 46.774 21.5938 48.3436 20.9131L49.1393 22.748C47.5787 23.4248 46.0266 24.1115 44.4879 24.8042L43.6668 22.9805ZM53.0526 18.9131C54.6314 18.2572 56.2141 17.6149 57.7958 16.99L58.5307 18.8501C56.9605 19.4704 55.3886 20.1083 53.8199 20.76L53.0526 18.9131ZM62.5749 15.1559C64.191 14.5547 65.801 13.9759 67.3994 13.4238L68.0524 15.3142C66.4699 15.8608 64.8747 16.4343 63.2722 17.0304L62.5749 15.1559ZM72.2674 11.816C73.0884 11.558 73.9048 11.3084 74.7157 11.0679L75.2843 12.9854C74.4842 13.2227 73.6782 13.4691 72.8671 13.724L72.2674 11.816ZM74.7157 11.0679C75.4894 10.8385 76.2527 10.6136 77.0062 10.3933L77.5676 12.3128C76.8167 12.5325 76.0558 12.7566 75.2843 12.9854L74.7157 11.0679ZM81.5912 9.07436C83.1622 8.63074 84.6926 8.20793 86.1893 7.80501L86.7092 9.73625C85.2212 10.1368 83.6987 10.5575 82.1347 10.9991L81.5912 9.07436ZM90.8067 6.59891C92.3823 6.2009 93.9261 5.82574 95.4472 5.47224L95.8999 7.42032C94.3921 7.77074 92.8607 8.14287 91.2966 8.53799L90.8067 6.59891ZM100.113 4.4418C101.689 4.11274 103.249 3.80671 104.806 3.52222L105.166 5.48965C103.626 5.77103 102.082 6.07382 100.522 6.39956L100.113 4.4418ZM109.523 2.72482C111.091 2.48128 112.666 2.25803 114.259 2.05355L114.514 4.03728C112.938 4.23954 111.38 4.46032 109.83 4.70111L109.523 2.72482ZM119.011 1.50468C120.569 1.34406 122.153 1.19905 123.773 1.06833L123.934 3.06185C122.328 3.19144 120.758 3.33511 119.216 3.49413L119.011 1.50468ZM128.538 0.73074C130.087 0.635365 131.674 0.550835 133.305 0.476143L133.397 2.47405C131.775 2.5483 130.199 2.63228 128.661 2.72696L128.538 0.73074ZM138.068 0.289547C139.611 0.238518 141.197 0.194622 142.829 0.157146L142.875 2.15662C141.249 2.19395 139.67 2.23767 138.134 2.28846L138.068 0.289547ZM147.597 0.0673294C148.383 0.0555077 149.18 0.0448723 149.988 0.0353622L150.012 2.03522C149.206 2.04471 148.411 2.05532 147.628 2.0671L147.597 0.0673294ZM149.988 0.0353622C150.848 0.025238 151.697 0.0172615 152.536 0.0114632L152.55 2.01141C151.715 2.01719 150.869 2.02514 150.012 2.03522L149.988 0.0353622ZM157.621 0.00389481C159.358 0.0113525 161.05 0.0295639 162.701 0.0589256L162.666 2.05861C161.024 2.02942 159.341 2.0113 157.612 2.00388L157.621 0.00389481ZM167.782 0.188976C169.517 0.247715 171.209 0.32053 172.865 0.407944L172.76 2.40517C171.117 2.31845 169.437 2.24617 167.715 2.18783L167.782 0.188976ZM177.948 0.73024C179.67 0.858604 181.359 1.00474 183.024 1.16932L182.827 3.15961C181.179 2.99667 179.506 2.85191 177.799 2.72471L177.948 0.73024ZM188.088 1.73578C189.783 1.94794 191.462 2.18093 193.135 2.43547L192.834 4.41269C191.179 4.16081 189.518 3.93026 187.839 3.72031L188.088 1.73578ZM198.162 3.26806C199.823 3.56522 201.487 3.88442 203.165 4.22634L202.765 6.18605C201.103 5.84719 199.454 5.53103 197.81 5.23681L198.162 3.26806ZM208.14 5.29689C209.767 5.66454 211.414 6.0533 213.091 6.46374L212.615 8.40636C210.949 7.99852 209.314 7.61251 207.699 7.24768L208.14 5.29689ZM218.019 7.70942C219.622 8.12631 221.257 8.5621 222.93 9.01723L222.404 10.9471C220.738 10.4937 219.111 10.0598 217.516 9.64501L218.019 7.70942ZM227.827 10.3728C228.633 10.5993 229.448 10.8299 230.274 11.0649L229.726 12.9885C228.903 12.7541 228.09 12.5241 227.286 12.2982L227.827 10.3728ZM230.274 11.0649C231.043 11.2837 231.818 11.5101 232.599 11.7437L232.026 13.6598C231.253 13.4287 230.486 13.2048 229.726 12.9885L230.274 11.0649ZM237.241 13.1927C238.76 13.6857 240.295 14.2012 241.841 14.736L241.187 16.6261C239.653 16.0952 238.13 15.5838 236.624 15.0951L237.241 13.1927ZM246.417 16.3626C247.927 16.9133 249.444 17.4791 250.962 18.0574L250.25 19.9264C248.74 19.3513 247.233 18.7888 245.732 18.2417L246.417 16.3626ZM255.482 19.8125C256.985 20.4069 258.485 21.0107 259.98 21.6211L259.223 23.4726C257.736 22.8648 256.242 22.2638 254.746 21.6724L255.482 19.8125ZM264.457 23.4775C265.956 24.1079 267.444 24.7422 268.917 25.3778L268.125 27.2141C266.657 26.5809 265.175 25.949 263.682 25.3212L264.457 23.4775ZM273.354 27.3151C274.853 27.9769 276.33 28.6369 277.781 29.2917L276.959 31.1147C275.512 30.462 274.04 29.8042 272.546 29.1446L273.354 27.3151ZM282.19 31.3011C283.692 31.9926 285.158 32.6742 286.581 33.3418L285.732 35.1526C284.313 34.4868 282.851 33.8073 281.353 33.1179L282.19 31.3011ZM290.958 35.4133C292.483 36.1412 293.943 36.8449 295.329 37.5184L294.455 39.3174C293.073 38.6458 291.617 37.944 290.097 37.2181L290.958 35.4133ZM299.681 39.6506C301.278 40.4401 302.728 41.1648 304.011 41.8104L303.112 43.5969C301.833 42.9533 300.387 42.2307 298.794 41.4435L299.681 39.6506Z" fill="#D9D9D9"/>
</svg>
