<svg width="9" height="16" viewBox="0 0 9 16" fill="none" xmlns="http://www.w3.org/2000/svg">
<path fill-rule="evenodd" clip-rule="evenodd" d="M0.0527641 0.023381C0.111495 -0.033389 -0.0240479 0.0541128 0.0527641 0.023381C0.129576 -0.00735072 0.961476 0.023381 1.04464 0.023381C1.1278 0.023381 0.967826 -0.00735072 1.04464 0.023381C1.12145 0.0541128 0.985908 -0.033389 1.04464 0.023381L8.97963 7.98625C9.03851 8.04288 8.94776 7.91219 8.97963 7.98625C9.01151 8.06031 8.97963 7.90607 8.97963 7.98625C8.97963 8.06644 9.01151 7.91219 8.97963 7.98625C8.94776 8.06031 9.03851 7.92963 8.97963 7.98625L1.04464 15.9491C0.925919 16.0636 1.21253 15.9491 1.04464 15.9491C0.876744 15.9491 0.171483 16.0636 0.0527641 15.9491C-0.0659552 15.8347 0.0527641 15.1156 0.0527641 14.9538C0.0527641 14.7919 -0.0659552 15.0682 0.0527641 14.9538L6.99588 7.98625L0.0527641 1.01874C-0.00611491 0.962113 0.0846376 1.0928 0.0527641 1.01874C0.0208907 0.944679 0.0527641 1.09892 0.0527641 1.01874C0.0527641 0.938556 0.0208907 0.0974417 0.0527641 0.023381C-0.00611491 0.0800077 0.0846376 -0.0506796 0.0527641 0.023381Z" fill="black"/>
</svg>
